<mxfile host="Electron" modified="2024-05-29T23:25:23.110Z" agent="Mozilla/5.0 (Macintosh; Intel Mac OS X 10_15_7) AppleWebKit/537.36 (KHTML, like Gecko) draw.io/23.1.5 Chrome/120.0.6099.109 Electron/28.1.0 Safari/537.36" etag="kebQQRO2mQk66ua6gOl8" version="23.1.5" type="device" pages="4">
  <diagram name="storyboard" id="IJ7nEX4ex3ZXd0XcwpNe">
    <mxGraphModel dx="1049" dy="778" grid="1" gridSize="10" guides="1" tooltips="1" connect="1" arrows="1" fold="1" page="1" pageScale="1" pageWidth="827" pageHeight="1169" math="0" shadow="0">
      <root>
        <mxCell id="0" />
        <mxCell id="1" parent="0" />
        <mxCell id="2w7L24V5iFPlK4I_2Nje-1" value="" style="rounded=1;whiteSpace=wrap;html=1;strokeWidth=2;gradientColor=none;sketch=1;curveFitting=1;jiggle=2;fontFamily=Garamond;fontStyle=1" parent="1" vertex="1">
          <mxGeometry x="20" y="40" width="160" height="120" as="geometry" />
        </mxCell>
        <mxCell id="2w7L24V5iFPlK4I_2Nje-2" value="" style="rounded=1;whiteSpace=wrap;html=1;strokeWidth=2;gradientColor=none;sketch=1;curveFitting=1;jiggle=2;fontFamily=Garamond;fontStyle=1" parent="1" vertex="1">
          <mxGeometry x="460" y="40" width="160" height="120" as="geometry" />
        </mxCell>
        <mxCell id="2w7L24V5iFPlK4I_2Nje-3" value="" style="rounded=1;whiteSpace=wrap;html=1;strokeWidth=2;gradientColor=none;sketch=1;curveFitting=1;jiggle=2;fontFamily=Garamond;fontStyle=1" parent="1" vertex="1">
          <mxGeometry x="680" y="40" width="160" height="120" as="geometry" />
        </mxCell>
        <mxCell id="2w7L24V5iFPlK4I_2Nje-4" value="" style="rounded=1;whiteSpace=wrap;html=1;strokeWidth=2;gradientColor=none;sketch=1;curveFitting=1;jiggle=2;fontFamily=Garamond;fontStyle=1" parent="1" vertex="1">
          <mxGeometry x="240" y="40" width="160" height="120" as="geometry" />
        </mxCell>
        <mxCell id="2w7L24V5iFPlK4I_2Nje-5" value="" style="endArrow=open;html=1;rounded=0;endFill=0;strokeWidth=2;sketch=1;curveFitting=1;jiggle=2;fontStyle=1;fontFamily=Garamond;" parent="1" edge="1">
          <mxGeometry width="50" height="50" relative="1" as="geometry">
            <mxPoint x="190" y="99.97999999999999" as="sourcePoint" />
            <mxPoint x="230" y="99.97999999999999" as="targetPoint" />
          </mxGeometry>
        </mxCell>
        <mxCell id="2w7L24V5iFPlK4I_2Nje-6" value="" style="endArrow=open;html=1;rounded=0;endFill=0;strokeWidth=2;sketch=1;curveFitting=1;jiggle=2;fontStyle=1;fontFamily=Garamond;" parent="1" edge="1">
          <mxGeometry width="50" height="50" relative="1" as="geometry">
            <mxPoint x="410" y="99.99" as="sourcePoint" />
            <mxPoint x="450" y="99.99" as="targetPoint" />
          </mxGeometry>
        </mxCell>
        <mxCell id="2w7L24V5iFPlK4I_2Nje-7" value="" style="endArrow=open;html=1;rounded=0;endFill=0;strokeWidth=2;sketch=1;curveFitting=1;jiggle=2;fontStyle=1;fontFamily=Garamond;" parent="1" edge="1">
          <mxGeometry width="50" height="50" relative="1" as="geometry">
            <mxPoint x="630" y="100.00000000000003" as="sourcePoint" />
            <mxPoint x="670" y="100.00000000000003" as="targetPoint" />
          </mxGeometry>
        </mxCell>
        <mxCell id="2w7L24V5iFPlK4I_2Nje-8" value="" style="rounded=1;whiteSpace=wrap;html=1;strokeWidth=2;gradientColor=none;sketch=1;curveFitting=1;jiggle=2;fontFamily=Garamond;fontStyle=1" parent="1" vertex="1">
          <mxGeometry x="20" y="220" width="160" height="120" as="geometry" />
        </mxCell>
        <mxCell id="2w7L24V5iFPlK4I_2Nje-9" value="" style="endArrow=open;html=1;rounded=0;endFill=0;strokeWidth=2;sketch=1;curveFitting=1;jiggle=2;fontStyle=1;fontFamily=Garamond;" parent="1" edge="1">
          <mxGeometry width="50" height="50" relative="1" as="geometry">
            <mxPoint x="190" y="279.97999999999996" as="sourcePoint" />
            <mxPoint x="230" y="279.97999999999996" as="targetPoint" />
          </mxGeometry>
        </mxCell>
        <mxCell id="2w7L24V5iFPlK4I_2Nje-10" value="" style="rounded=1;whiteSpace=wrap;html=1;strokeWidth=2;gradientColor=none;sketch=1;curveFitting=1;jiggle=2;fontFamily=Garamond;fontStyle=1" parent="1" vertex="1">
          <mxGeometry x="240" y="220" width="160" height="120" as="geometry" />
        </mxCell>
        <mxCell id="2w7L24V5iFPlK4I_2Nje-11" value="" style="rounded=1;whiteSpace=wrap;html=1;strokeWidth=2;gradientColor=none;sketch=1;curveFitting=1;jiggle=2;fontFamily=Garamond;fontStyle=1" parent="1" vertex="1">
          <mxGeometry x="460" y="220" width="160" height="120" as="geometry" />
        </mxCell>
        <mxCell id="2w7L24V5iFPlK4I_2Nje-12" value="" style="endArrow=open;html=1;rounded=0;endFill=0;strokeWidth=2;sketch=1;curveFitting=1;jiggle=2;fontStyle=1;fontFamily=Garamond;" parent="1" edge="1">
          <mxGeometry width="50" height="50" relative="1" as="geometry">
            <mxPoint x="410" y="280" as="sourcePoint" />
            <mxPoint x="450" y="280" as="targetPoint" />
          </mxGeometry>
        </mxCell>
        <mxCell id="2w7L24V5iFPlK4I_2Nje-13" value="Introduction" style="text;html=1;align=center;verticalAlign=middle;whiteSpace=wrap;rounded=0;fontFamily=Garamond;fontStyle=1;fontSize=18;" parent="1" vertex="1">
          <mxGeometry x="50" y="85" width="100" height="30" as="geometry" />
        </mxCell>
        <mxCell id="2w7L24V5iFPlK4I_2Nje-14" value="Relevance" style="text;html=1;align=center;verticalAlign=middle;whiteSpace=wrap;rounded=0;fontFamily=Garamond;fontStyle=1;fontSize=18;" parent="1" vertex="1">
          <mxGeometry x="270" y="85" width="100" height="30" as="geometry" />
        </mxCell>
        <mxCell id="2w7L24V5iFPlK4I_2Nje-15" value="What are classical machine learning models?" style="text;html=1;align=center;verticalAlign=middle;whiteSpace=wrap;rounded=0;fontFamily=Garamond;fontStyle=1;fontSize=18;" parent="1" vertex="1">
          <mxGeometry x="470" y="60" width="140" height="80" as="geometry" />
        </mxCell>
        <mxCell id="2w7L24V5iFPlK4I_2Nje-16" value="What is ZKP" style="text;html=1;align=center;verticalAlign=middle;whiteSpace=wrap;rounded=0;fontFamily=Garamond;fontStyle=1;fontSize=18;" parent="1" vertex="1">
          <mxGeometry x="700" y="85" width="120" height="30" as="geometry" />
        </mxCell>
        <mxCell id="2w7L24V5iFPlK4I_2Nje-17" value="Proof of training" style="text;html=1;align=center;verticalAlign=middle;whiteSpace=wrap;rounded=0;fontFamily=Garamond;fontStyle=1;fontSize=18;" parent="1" vertex="1">
          <mxGeometry x="20" y="265" width="160" height="30" as="geometry" />
        </mxCell>
        <mxCell id="2w7L24V5iFPlK4I_2Nje-18" value="zkBoost" style="text;html=1;align=center;verticalAlign=middle;whiteSpace=wrap;rounded=0;fontFamily=Garamond;fontStyle=1;fontSize=18;" parent="1" vertex="1">
          <mxGeometry x="270" y="265" width="100" height="30" as="geometry" />
        </mxCell>
        <mxCell id="2w7L24V5iFPlK4I_2Nje-19" value="Conclusion" style="text;html=1;align=center;verticalAlign=middle;whiteSpace=wrap;rounded=0;fontFamily=Garamond;fontStyle=1;fontSize=18;" parent="1" vertex="1">
          <mxGeometry x="490" y="265" width="100" height="30" as="geometry" />
        </mxCell>
        <mxCell id="2w7L24V5iFPlK4I_2Nje-20" value="" style="rounded=1;whiteSpace=wrap;html=1;strokeWidth=2;gradientColor=none;sketch=1;curveFitting=1;jiggle=2;fontFamily=Garamond;fontStyle=1" parent="1" vertex="1">
          <mxGeometry x="680" y="220" width="160" height="120" as="geometry" />
        </mxCell>
        <mxCell id="2w7L24V5iFPlK4I_2Nje-21" value="References" style="text;html=1;align=center;verticalAlign=middle;whiteSpace=wrap;rounded=0;fontFamily=Garamond;fontStyle=1;fontSize=18;" parent="1" vertex="1">
          <mxGeometry x="710" y="265" width="100" height="30" as="geometry" />
        </mxCell>
        <mxCell id="2w7L24V5iFPlK4I_2Nje-22" value="" style="endArrow=open;html=1;rounded=0;endFill=0;strokeWidth=2;sketch=1;curveFitting=1;jiggle=2;fontStyle=1;fontFamily=Garamond;" parent="1" edge="1">
          <mxGeometry width="50" height="50" relative="1" as="geometry">
            <mxPoint x="630" y="280" as="sourcePoint" />
            <mxPoint x="670" y="280" as="targetPoint" />
          </mxGeometry>
        </mxCell>
        <mxCell id="2w7L24V5iFPlK4I_2Nje-23" value="" style="endArrow=open;html=1;rounded=0;endFill=0;strokeWidth=2;sketch=1;curveFitting=1;jiggle=2;fontStyle=1;fontFamily=Garamond;" parent="1" edge="1">
          <mxGeometry width="50" height="50" relative="1" as="geometry">
            <mxPoint x="850" y="100.00000000000003" as="sourcePoint" />
            <mxPoint x="890" y="100.00000000000003" as="targetPoint" />
          </mxGeometry>
        </mxCell>
        <mxCell id="2w7L24V5iFPlK4I_2Nje-25" value="Introduction" style="text;html=1;align=left;verticalAlign=middle;whiteSpace=wrap;rounded=0;fontFamily=Garamond;fontStyle=1;fontSize=18;" parent="1" vertex="1">
          <mxGeometry x="40" y="440" width="120" height="40" as="geometry" />
        </mxCell>
        <mxCell id="2w7L24V5iFPlK4I_2Nje-26" value="Good morning everyone, it&#39;s good to see...&lt;div&gt;&lt;br&gt;&lt;/div&gt;&lt;div&gt;The title of my research is &quot;zkBoost: ...&quot;&lt;/div&gt;" style="text;html=1;align=left;verticalAlign=middle;whiteSpace=wrap;rounded=0;fontFamily=Garamond;fontStyle=0;fontSize=18;" parent="1" vertex="1">
          <mxGeometry x="40" y="480" width="560" height="80" as="geometry" />
        </mxCell>
        <mxCell id="2w7L24V5iFPlK4I_2Nje-27" value="Relevance" style="text;html=1;align=left;verticalAlign=middle;whiteSpace=wrap;rounded=0;fontFamily=Garamond;fontStyle=1;fontSize=18;" parent="1" vertex="1">
          <mxGeometry x="40" y="600" width="120" height="40" as="geometry" />
        </mxCell>
        <mxCell id="2w7L24V5iFPlK4I_2Nje-28" value="It has now become more apparent than ever before, that classical machine learning plays an important role in our lives. With machine learning models getting more and more complex, it was just a matter of time for them to become outsourced. Nowadays we see a lot of big companies like Google, OpenAI and Yandex providing their pre-trained machine learning models to users as a service.&lt;div style=&quot;line-height: 120%;&quot;&gt;&lt;br&gt;&lt;/div&gt;&lt;div style=&quot;line-height: 120%;&quot;&gt;This however poses a security concern for the end users as they can no longer be sure that the model was trained correctly, meaning using a public specification, such as batch size, number of epochs and specific dataset with specific properties.&lt;/div&gt;&lt;div style=&quot;line-height: 120%;&quot;&gt;&lt;br&gt;&lt;/div&gt;&lt;div style=&quot;line-height: 120%;&quot;&gt;This also poses a security concern for the model owner, as there exists a so-called &quot;model extraction&quot; attack, where the attacker basically steals the model using only its public interface without knowing its inner design.&lt;/div&gt;&lt;div style=&quot;line-height: 120%;&quot;&gt;&lt;br&gt;&lt;/div&gt;&lt;div style=&quot;line-height: 120%;&quot;&gt;Lastly, huge computational complexity may require the model owner to split the process of model training across multiple servers. However, there is no way of telling if the model was trained correctly by these remote servers, to which model owner may simply not have access to.&lt;/div&gt;" style="text;html=1;align=left;verticalAlign=middle;whiteSpace=wrap;rounded=0;fontFamily=Garamond;fontStyle=0;fontSize=18;horizontal=1;" parent="1" vertex="1">
          <mxGeometry x="40" y="640" width="560" height="440" as="geometry" />
        </mxCell>
        <mxCell id="lDGBRL2oxvrcsyeKkIVh-1" value="Classical ML" style="text;html=1;align=left;verticalAlign=middle;whiteSpace=wrap;rounded=0;fontFamily=Garamond;fontStyle=1;fontSize=18;" vertex="1" parent="1">
          <mxGeometry x="40" y="1100" width="120" height="40" as="geometry" />
        </mxCell>
        <mxCell id="lDGBRL2oxvrcsyeKkIVh-2" value="So, what just is classical machine learning? Classical machine learning studies machine learning models that are not neural networks, basically. For our purposes we can roughly divide classical machine learning into models themselves and metamodels which are techniques to combine models between each other in order to create a more sophisticated model and typically a more precise one." style="text;html=1;align=left;verticalAlign=middle;whiteSpace=wrap;rounded=0;fontFamily=Garamond;fontStyle=0;fontSize=18;horizontal=1;" vertex="1" parent="1">
          <mxGeometry x="40" y="1140" width="560" height="140" as="geometry" />
        </mxCell>
        <mxCell id="lDGBRL2oxvrcsyeKkIVh-3" value="Decision trees | Random forest" style="text;html=1;align=left;verticalAlign=middle;whiteSpace=wrap;rounded=0;fontFamily=Garamond;fontStyle=1;fontSize=18;" vertex="1" parent="1">
          <mxGeometry x="40" y="1300" width="360" height="40" as="geometry" />
        </mxCell>
        <mxCell id="lDGBRL2oxvrcsyeKkIVh-4" value="Consider, for example, decision trees. These models are typically used for solving classification problems, but they are not limited to classification. You can think of a decision tree as a series of interdependent questions, answers to which lead to classification. For example here, a series of questions decides if the tree outputs &quot;yes&quot; or &quot;no&quot;.&lt;br&gt;&lt;br&gt;We can then combine multiple decision trees into a random forest, where each tree calculates its output, and then by the majority rule the random forest outputs a final decision or a final classification result. For example, here these two trees output &quot;yes&quot;, while this one outputs &quot;no&quot;, so the forest outputs &quot;yes&quot;. This is a very basic example of how metamodels work." style="text;html=1;align=left;verticalAlign=middle;whiteSpace=wrap;rounded=0;fontFamily=Garamond;fontStyle=0;fontSize=18;horizontal=1;" vertex="1" parent="1">
          <mxGeometry x="40" y="1340" width="560" height="250" as="geometry" />
        </mxCell>
        <mxCell id="RM-erZMgVYyeNVQxuNLv-1" value="ZKP" style="text;html=1;align=left;verticalAlign=middle;whiteSpace=wrap;rounded=0;fontFamily=Garamond;fontStyle=1;fontSize=18;" vertex="1" parent="1">
          <mxGeometry x="40" y="1640" width="360" height="40" as="geometry" />
        </mxCell>
        <mxCell id="RM-erZMgVYyeNVQxuNLv-2" value="So, imagine two parties: the prover and the verifier, and the prover wants to prove some statement to the verifier. For example, they may want to prove that they possess a key that grants them access to some system. The easiest way to solve the problem is to just send the key to the verifier, but that, of course, reveals the key, that may be secret. So what if the prover could just provide a small and quickly verifiable proof that they possess a key, that would disclose no information about the key itself? This is exactly what zero knowledge proofs are for. They are succinct proofs that certain statements are true. You may think of them as small files that are computationally very hard to fake. We achieve this fascinating property by allowing the prover and the verifier to interact and by allowing the verifier to be a randomized algorithm.&lt;br&gt;&lt;br&gt;It turns out that one can use this technique to construct a proof that a classical machine learning model was trained correctly. The rough idea is that at each iteration of the training process we can construct a proof that this iteration is correct, and then iteratively combine these proofs into an aggregate proof, which is also small and fast to verify." style="text;html=1;align=left;verticalAlign=middle;whiteSpace=wrap;rounded=0;fontFamily=Garamond;fontStyle=0;fontSize=18;horizontal=1;" vertex="1" parent="1">
          <mxGeometry x="40" y="1680" width="560" height="400" as="geometry" />
        </mxCell>
        <mxCell id="RM-erZMgVYyeNVQxuNLv-4" value="Which brings me to zkBoost: a zero-knowledge framework for proving training of gradient boosting metamodel." style="text;html=1;align=left;verticalAlign=middle;whiteSpace=wrap;rounded=0;fontFamily=Garamond;fontStyle=0;fontSize=18;horizontal=1;" vertex="1" parent="1">
          <mxGeometry x="40" y="2160" width="560" height="80" as="geometry" />
        </mxCell>
        <mxCell id="ugWKoOBU77sgT190KF1K-1" value="zkBoost" style="text;html=1;align=left;verticalAlign=middle;whiteSpace=wrap;rounded=0;fontFamily=Garamond;fontStyle=1;fontSize=18;" vertex="1" parent="1">
          <mxGeometry x="40" y="2120" width="360" height="40" as="geometry" />
        </mxCell>
      </root>
    </mxGraphModel>
  </diagram>
  <diagram id="904TjohOtReVVdG98KOX" name="decision-tree">
    <mxGraphModel dx="723" dy="537" grid="1" gridSize="10" guides="1" tooltips="1" connect="1" arrows="1" fold="1" page="1" pageScale="1" pageWidth="827" pageHeight="1169" math="0" shadow="0">
      <root>
        <mxCell id="0" />
        <mxCell id="1" parent="0" />
        <mxCell id="roFsEa7WCZHv3sBCxXsG-1" value="Q1?" style="ellipse;whiteSpace=wrap;html=1;aspect=fixed;fontFamily=Helvetica Neue;strokeWidth=4;fontStyle=1;fillColor=#e1d5e7;strokeColor=#9673a6;" vertex="1" parent="1">
          <mxGeometry x="320" y="200" width="40" height="40" as="geometry" />
        </mxCell>
        <mxCell id="roFsEa7WCZHv3sBCxXsG-2" value="Q2?" style="ellipse;whiteSpace=wrap;html=1;aspect=fixed;fontFamily=Helvetica Neue;strokeWidth=4;fontStyle=1;fillColor=#e1d5e7;strokeColor=#9673a6;" vertex="1" parent="1">
          <mxGeometry x="270" y="300" width="40" height="40" as="geometry" />
        </mxCell>
        <mxCell id="roFsEa7WCZHv3sBCxXsG-4" value="yes" style="ellipse;whiteSpace=wrap;html=1;aspect=fixed;fontFamily=Helvetica Neue;strokeWidth=4;fontStyle=1;fillColor=#d5e8d4;strokeColor=#82b366;" vertex="1" parent="1">
          <mxGeometry x="373" y="300" width="40" height="40" as="geometry" />
        </mxCell>
        <mxCell id="roFsEa7WCZHv3sBCxXsG-5" value="" style="endArrow=block;html=1;rounded=0;endFill=1;strokeWidth=3;strokeColor=#82b366;fontFamily=Helvetica Neue;fillColor=#d5e8d4;" edge="1" parent="1">
          <mxGeometry width="50" height="50" relative="1" as="geometry">
            <mxPoint x="320" y="250" as="sourcePoint" />
            <mxPoint x="300" y="290" as="targetPoint" />
          </mxGeometry>
        </mxCell>
        <mxCell id="roFsEa7WCZHv3sBCxXsG-6" value="" style="endArrow=block;html=1;rounded=0;endFill=1;strokeWidth=3;strokeColor=#b85450;fontFamily=Helvetica Neue;fillColor=#f8cecc;" edge="1" parent="1">
          <mxGeometry width="50" height="50" relative="1" as="geometry">
            <mxPoint x="360" y="250" as="sourcePoint" />
            <mxPoint x="380" y="290" as="targetPoint" />
          </mxGeometry>
        </mxCell>
        <mxCell id="roFsEa7WCZHv3sBCxXsG-8" value="" style="endArrow=block;html=1;rounded=0;endFill=1;strokeWidth=3;strokeColor=#82b366;fontFamily=Helvetica Neue;fillColor=#d5e8d4;" edge="1" parent="1">
          <mxGeometry width="50" height="50" relative="1" as="geometry">
            <mxPoint x="270" y="350" as="sourcePoint" />
            <mxPoint x="250" y="390" as="targetPoint" />
          </mxGeometry>
        </mxCell>
        <mxCell id="roFsEa7WCZHv3sBCxXsG-9" value="" style="endArrow=block;html=1;rounded=0;endFill=1;strokeWidth=3;strokeColor=#b85450;fontFamily=Helvetica Neue;fillColor=#f8cecc;" edge="1" parent="1">
          <mxGeometry width="50" height="50" relative="1" as="geometry">
            <mxPoint x="310" y="350" as="sourcePoint" />
            <mxPoint x="330" y="390" as="targetPoint" />
          </mxGeometry>
        </mxCell>
        <mxCell id="roFsEa7WCZHv3sBCxXsG-11" value="yes" style="ellipse;whiteSpace=wrap;html=1;aspect=fixed;fontFamily=Helvetica Neue;strokeWidth=4;fontStyle=1;fillColor=#d5e8d4;strokeColor=#82b366;" vertex="1" parent="1">
          <mxGeometry x="170" y="500" width="40" height="40" as="geometry" />
        </mxCell>
        <mxCell id="roFsEa7WCZHv3sBCxXsG-12" value="no" style="ellipse;whiteSpace=wrap;html=1;aspect=fixed;fontFamily=Helvetica Neue;strokeWidth=4;fontStyle=1;fillColor=#f8cecc;strokeColor=#b85450;" vertex="1" parent="1">
          <mxGeometry x="320" y="400" width="40" height="40" as="geometry" />
        </mxCell>
        <mxCell id="roFsEa7WCZHv3sBCxXsG-13" value="no" style="text;html=1;align=center;verticalAlign=middle;whiteSpace=wrap;rounded=0;fontColor=#B85450;" vertex="1" parent="1">
          <mxGeometry x="373" y="250" width="27" height="20" as="geometry" />
        </mxCell>
        <mxCell id="roFsEa7WCZHv3sBCxXsG-14" value="yes" style="text;html=1;align=center;verticalAlign=middle;whiteSpace=wrap;rounded=0;fontColor=#82B366;" vertex="1" parent="1">
          <mxGeometry x="276.5" y="250" width="27" height="20" as="geometry" />
        </mxCell>
        <mxCell id="roFsEa7WCZHv3sBCxXsG-15" value="Q3?" style="ellipse;whiteSpace=wrap;html=1;aspect=fixed;fontFamily=Helvetica Neue;strokeWidth=4;fontStyle=1;fillColor=#e1d5e7;strokeColor=#9673a6;" vertex="1" parent="1">
          <mxGeometry x="220" y="400" width="40" height="40" as="geometry" />
        </mxCell>
        <mxCell id="roFsEa7WCZHv3sBCxXsG-16" value="" style="endArrow=block;html=1;rounded=0;endFill=1;strokeWidth=3;strokeColor=#82b366;fontFamily=Helvetica Neue;fillColor=#d5e8d4;" edge="1" parent="1">
          <mxGeometry width="50" height="50" relative="1" as="geometry">
            <mxPoint x="220" y="450" as="sourcePoint" />
            <mxPoint x="200" y="490" as="targetPoint" />
          </mxGeometry>
        </mxCell>
        <mxCell id="roFsEa7WCZHv3sBCxXsG-17" value="" style="endArrow=block;html=1;rounded=0;endFill=1;strokeWidth=3;strokeColor=#b85450;fontFamily=Helvetica Neue;fillColor=#f8cecc;" edge="1" parent="1">
          <mxGeometry width="50" height="50" relative="1" as="geometry">
            <mxPoint x="260" y="450" as="sourcePoint" />
            <mxPoint x="280" y="490" as="targetPoint" />
          </mxGeometry>
        </mxCell>
        <mxCell id="roFsEa7WCZHv3sBCxXsG-18" value="no" style="ellipse;whiteSpace=wrap;html=1;aspect=fixed;fontFamily=Helvetica Neue;strokeWidth=4;fontStyle=1;fillColor=#f8cecc;strokeColor=#b85450;" vertex="1" parent="1">
          <mxGeometry x="270" y="500" width="40" height="40" as="geometry" />
        </mxCell>
      </root>
    </mxGraphModel>
  </diagram>
  <diagram name="random-forest" id="Ln560T8a_lmtxRhABJjn">
    <mxGraphModel dx="1049" dy="778" grid="1" gridSize="10" guides="1" tooltips="1" connect="1" arrows="1" fold="1" page="1" pageScale="1" pageWidth="827" pageHeight="1169" math="0" shadow="0">
      <root>
        <mxCell id="eGeyz6QdcLcYbzC0eajq-0" />
        <mxCell id="eGeyz6QdcLcYbzC0eajq-1" parent="eGeyz6QdcLcYbzC0eajq-0" />
        <mxCell id="JKelvmIhbmDu9MPVq55F-2" value="" style="ellipse;whiteSpace=wrap;html=1;aspect=fixed;" vertex="1" parent="eGeyz6QdcLcYbzC0eajq-1">
          <mxGeometry x="504" y="420" width="60" height="60" as="geometry" />
        </mxCell>
        <mxCell id="JKelvmIhbmDu9MPVq55F-1" value="" style="ellipse;whiteSpace=wrap;html=1;aspect=fixed;" vertex="1" parent="eGeyz6QdcLcYbzC0eajq-1">
          <mxGeometry x="530" y="230" width="60" height="60" as="geometry" />
        </mxCell>
        <mxCell id="JKelvmIhbmDu9MPVq55F-0" value="" style="ellipse;whiteSpace=wrap;html=1;aspect=fixed;" vertex="1" parent="eGeyz6QdcLcYbzC0eajq-1">
          <mxGeometry x="161" y="370" width="60" height="60" as="geometry" />
        </mxCell>
        <mxCell id="eGeyz6QdcLcYbzC0eajq-2" value="Q1?" style="ellipse;whiteSpace=wrap;html=1;aspect=fixed;fontFamily=Helvetica Neue;strokeWidth=4;fontStyle=1;fillColor=#e1d5e7;strokeColor=#9673a6;" vertex="1" parent="eGeyz6QdcLcYbzC0eajq-1">
          <mxGeometry x="321" y="80" width="40" height="40" as="geometry" />
        </mxCell>
        <mxCell id="eGeyz6QdcLcYbzC0eajq-3" value="Q2?" style="ellipse;whiteSpace=wrap;html=1;aspect=fixed;fontFamily=Helvetica Neue;strokeWidth=4;fontStyle=1;fillColor=#e1d5e7;strokeColor=#9673a6;" vertex="1" parent="eGeyz6QdcLcYbzC0eajq-1">
          <mxGeometry x="271" y="180" width="40" height="40" as="geometry" />
        </mxCell>
        <mxCell id="eGeyz6QdcLcYbzC0eajq-4" value="yes" style="ellipse;whiteSpace=wrap;html=1;aspect=fixed;fontFamily=Helvetica Neue;strokeWidth=4;fontStyle=1;fillColor=#d5e8d4;strokeColor=#82b366;" vertex="1" parent="eGeyz6QdcLcYbzC0eajq-1">
          <mxGeometry x="374" y="180" width="40" height="40" as="geometry" />
        </mxCell>
        <mxCell id="eGeyz6QdcLcYbzC0eajq-5" value="" style="endArrow=block;html=1;rounded=0;endFill=1;strokeWidth=3;strokeColor=#82b366;fontFamily=Helvetica Neue;fillColor=#d5e8d4;" edge="1" parent="eGeyz6QdcLcYbzC0eajq-1">
          <mxGeometry width="50" height="50" relative="1" as="geometry">
            <mxPoint x="321" y="130" as="sourcePoint" />
            <mxPoint x="301" y="170" as="targetPoint" />
          </mxGeometry>
        </mxCell>
        <mxCell id="eGeyz6QdcLcYbzC0eajq-6" value="" style="endArrow=block;html=1;rounded=0;endFill=1;strokeWidth=3;strokeColor=#b85450;fontFamily=Helvetica Neue;fillColor=#f8cecc;" edge="1" parent="eGeyz6QdcLcYbzC0eajq-1">
          <mxGeometry width="50" height="50" relative="1" as="geometry">
            <mxPoint x="361" y="130" as="sourcePoint" />
            <mxPoint x="381" y="170" as="targetPoint" />
          </mxGeometry>
        </mxCell>
        <mxCell id="eGeyz6QdcLcYbzC0eajq-7" value="" style="endArrow=block;html=1;rounded=0;endFill=1;strokeWidth=3;strokeColor=#82b366;fontFamily=Helvetica Neue;fillColor=#d5e8d4;" edge="1" parent="eGeyz6QdcLcYbzC0eajq-1">
          <mxGeometry width="50" height="50" relative="1" as="geometry">
            <mxPoint x="271" y="230" as="sourcePoint" />
            <mxPoint x="251" y="270" as="targetPoint" />
          </mxGeometry>
        </mxCell>
        <mxCell id="eGeyz6QdcLcYbzC0eajq-8" value="" style="endArrow=block;html=1;rounded=0;endFill=1;strokeWidth=3;strokeColor=#b85450;fontFamily=Helvetica Neue;fillColor=#f8cecc;" edge="1" parent="eGeyz6QdcLcYbzC0eajq-1">
          <mxGeometry width="50" height="50" relative="1" as="geometry">
            <mxPoint x="311" y="230" as="sourcePoint" />
            <mxPoint x="331" y="270" as="targetPoint" />
          </mxGeometry>
        </mxCell>
        <mxCell id="eGeyz6QdcLcYbzC0eajq-9" value="yes" style="ellipse;whiteSpace=wrap;html=1;aspect=fixed;fontFamily=Helvetica Neue;strokeWidth=4;fontStyle=1;fillColor=#d5e8d4;strokeColor=#82b366;" vertex="1" parent="eGeyz6QdcLcYbzC0eajq-1">
          <mxGeometry x="171" y="380" width="40" height="40" as="geometry" />
        </mxCell>
        <mxCell id="eGeyz6QdcLcYbzC0eajq-10" value="no" style="ellipse;whiteSpace=wrap;html=1;aspect=fixed;fontFamily=Helvetica Neue;strokeWidth=4;fontStyle=1;fillColor=#f8cecc;strokeColor=#b85450;" vertex="1" parent="eGeyz6QdcLcYbzC0eajq-1">
          <mxGeometry x="321" y="280" width="40" height="40" as="geometry" />
        </mxCell>
        <mxCell id="eGeyz6QdcLcYbzC0eajq-13" value="Q3?" style="ellipse;whiteSpace=wrap;html=1;aspect=fixed;fontFamily=Helvetica Neue;strokeWidth=4;fontStyle=1;fillColor=#e1d5e7;strokeColor=#9673a6;" vertex="1" parent="eGeyz6QdcLcYbzC0eajq-1">
          <mxGeometry x="221" y="280" width="40" height="40" as="geometry" />
        </mxCell>
        <mxCell id="eGeyz6QdcLcYbzC0eajq-14" value="" style="endArrow=block;html=1;rounded=0;endFill=1;strokeWidth=3;strokeColor=#82b366;fontFamily=Helvetica Neue;fillColor=#d5e8d4;" edge="1" parent="eGeyz6QdcLcYbzC0eajq-1">
          <mxGeometry width="50" height="50" relative="1" as="geometry">
            <mxPoint x="221" y="330" as="sourcePoint" />
            <mxPoint x="201" y="370" as="targetPoint" />
          </mxGeometry>
        </mxCell>
        <mxCell id="eGeyz6QdcLcYbzC0eajq-15" value="" style="endArrow=block;html=1;rounded=0;endFill=1;strokeWidth=3;strokeColor=#b85450;fontFamily=Helvetica Neue;fillColor=#f8cecc;" edge="1" parent="eGeyz6QdcLcYbzC0eajq-1">
          <mxGeometry width="50" height="50" relative="1" as="geometry">
            <mxPoint x="261" y="330" as="sourcePoint" />
            <mxPoint x="281" y="370" as="targetPoint" />
          </mxGeometry>
        </mxCell>
        <mxCell id="eGeyz6QdcLcYbzC0eajq-16" value="no" style="ellipse;whiteSpace=wrap;html=1;aspect=fixed;fontFamily=Helvetica Neue;strokeWidth=4;fontStyle=1;fillColor=#f8cecc;strokeColor=#b85450;" vertex="1" parent="eGeyz6QdcLcYbzC0eajq-1">
          <mxGeometry x="271" y="380" width="40" height="40" as="geometry" />
        </mxCell>
        <mxCell id="F2Pok5HR0kXnO0getMP2-0" value="Q4?" style="ellipse;whiteSpace=wrap;html=1;aspect=fixed;fontFamily=Helvetica Neue;strokeWidth=4;fontStyle=1;fillColor=#e1d5e7;strokeColor=#9673a6;" vertex="1" parent="eGeyz6QdcLcYbzC0eajq-1">
          <mxGeometry x="540" y="40" width="40" height="40" as="geometry" />
        </mxCell>
        <mxCell id="F2Pok5HR0kXnO0getMP2-1" value="Q5?" style="ellipse;whiteSpace=wrap;html=1;aspect=fixed;fontFamily=Helvetica Neue;strokeWidth=4;fontStyle=1;fillColor=#e1d5e7;strokeColor=#9673a6;" vertex="1" parent="eGeyz6QdcLcYbzC0eajq-1">
          <mxGeometry x="590" y="140" width="40" height="40" as="geometry" />
        </mxCell>
        <mxCell id="F2Pok5HR0kXnO0getMP2-2" value="yes" style="ellipse;whiteSpace=wrap;html=1;aspect=fixed;fontFamily=Helvetica Neue;strokeWidth=4;fontStyle=1;fillColor=#d5e8d4;strokeColor=#82b366;" vertex="1" parent="eGeyz6QdcLcYbzC0eajq-1">
          <mxGeometry x="490" y="140" width="40" height="40" as="geometry" />
        </mxCell>
        <mxCell id="F2Pok5HR0kXnO0getMP2-3" value="" style="endArrow=block;html=1;rounded=0;endFill=1;strokeWidth=3;strokeColor=#82b366;fontFamily=Helvetica Neue;fillColor=#d5e8d4;" edge="1" parent="eGeyz6QdcLcYbzC0eajq-1">
          <mxGeometry width="50" height="50" relative="1" as="geometry">
            <mxPoint x="540" y="90" as="sourcePoint" />
            <mxPoint x="520" y="130" as="targetPoint" />
          </mxGeometry>
        </mxCell>
        <mxCell id="F2Pok5HR0kXnO0getMP2-4" value="" style="endArrow=block;html=1;rounded=0;endFill=1;strokeWidth=3;strokeColor=#b85450;fontFamily=Helvetica Neue;fillColor=#f8cecc;" edge="1" parent="eGeyz6QdcLcYbzC0eajq-1">
          <mxGeometry width="50" height="50" relative="1" as="geometry">
            <mxPoint x="580" y="90" as="sourcePoint" />
            <mxPoint x="600" y="130" as="targetPoint" />
          </mxGeometry>
        </mxCell>
        <mxCell id="F2Pok5HR0kXnO0getMP2-5" value="" style="endArrow=block;html=1;rounded=0;endFill=1;strokeWidth=3;strokeColor=#82b366;fontFamily=Helvetica Neue;fillColor=#d5e8d4;" edge="1" parent="eGeyz6QdcLcYbzC0eajq-1">
          <mxGeometry width="50" height="50" relative="1" as="geometry">
            <mxPoint x="590" y="190" as="sourcePoint" />
            <mxPoint x="570" y="230" as="targetPoint" />
          </mxGeometry>
        </mxCell>
        <mxCell id="F2Pok5HR0kXnO0getMP2-6" value="" style="endArrow=block;html=1;rounded=0;endFill=1;strokeWidth=3;strokeColor=#b85450;fontFamily=Helvetica Neue;fillColor=#f8cecc;" edge="1" parent="eGeyz6QdcLcYbzC0eajq-1">
          <mxGeometry width="50" height="50" relative="1" as="geometry">
            <mxPoint x="630" y="190" as="sourcePoint" />
            <mxPoint x="650" y="230" as="targetPoint" />
          </mxGeometry>
        </mxCell>
        <mxCell id="F2Pok5HR0kXnO0getMP2-7" value="yes" style="ellipse;whiteSpace=wrap;html=1;aspect=fixed;fontFamily=Helvetica Neue;strokeWidth=4;fontStyle=1;fillColor=#d5e8d4;strokeColor=#82b366;" vertex="1" parent="eGeyz6QdcLcYbzC0eajq-1">
          <mxGeometry x="540" y="240" width="40" height="40" as="geometry" />
        </mxCell>
        <mxCell id="F2Pok5HR0kXnO0getMP2-8" value="no" style="ellipse;whiteSpace=wrap;html=1;aspect=fixed;fontFamily=Helvetica Neue;strokeWidth=4;fontStyle=1;fillColor=#f8cecc;strokeColor=#b85450;" vertex="1" parent="eGeyz6QdcLcYbzC0eajq-1">
          <mxGeometry x="640" y="240" width="40" height="40" as="geometry" />
        </mxCell>
        <mxCell id="F2Pok5HR0kXnO0getMP2-13" value="Q6?" style="ellipse;whiteSpace=wrap;html=1;aspect=fixed;fontFamily=Helvetica Neue;strokeWidth=4;fontStyle=1;fillColor=#e1d5e7;strokeColor=#9673a6;" vertex="1" parent="eGeyz6QdcLcYbzC0eajq-1">
          <mxGeometry x="464" y="330" width="40" height="40" as="geometry" />
        </mxCell>
        <mxCell id="F2Pok5HR0kXnO0getMP2-15" value="yes" style="ellipse;whiteSpace=wrap;html=1;aspect=fixed;fontFamily=Helvetica Neue;strokeWidth=4;fontStyle=1;fillColor=#d5e8d4;strokeColor=#82b366;" vertex="1" parent="eGeyz6QdcLcYbzC0eajq-1">
          <mxGeometry x="414" y="430" width="40" height="40" as="geometry" />
        </mxCell>
        <mxCell id="F2Pok5HR0kXnO0getMP2-16" value="" style="endArrow=block;html=1;rounded=0;endFill=1;strokeWidth=3;strokeColor=#82b366;fontFamily=Helvetica Neue;fillColor=#d5e8d4;" edge="1" parent="eGeyz6QdcLcYbzC0eajq-1">
          <mxGeometry width="50" height="50" relative="1" as="geometry">
            <mxPoint x="464" y="380" as="sourcePoint" />
            <mxPoint x="444" y="420" as="targetPoint" />
          </mxGeometry>
        </mxCell>
        <mxCell id="F2Pok5HR0kXnO0getMP2-17" value="" style="endArrow=block;html=1;rounded=0;endFill=1;strokeWidth=3;strokeColor=#b85450;fontFamily=Helvetica Neue;fillColor=#f8cecc;" edge="1" parent="eGeyz6QdcLcYbzC0eajq-1">
          <mxGeometry width="50" height="50" relative="1" as="geometry">
            <mxPoint x="504" y="380" as="sourcePoint" />
            <mxPoint x="524" y="420" as="targetPoint" />
          </mxGeometry>
        </mxCell>
        <mxCell id="F2Pok5HR0kXnO0getMP2-18" value="no" style="ellipse;whiteSpace=wrap;html=1;aspect=fixed;fontFamily=Helvetica Neue;strokeWidth=4;fontStyle=1;fillColor=#f8cecc;strokeColor=#b85450;" vertex="1" parent="eGeyz6QdcLcYbzC0eajq-1">
          <mxGeometry x="514" y="430" width="40" height="40" as="geometry" />
        </mxCell>
        <mxCell id="JKelvmIhbmDu9MPVq55F-9" value="" style="shape=stencil(lZ3Zsiy3jUW/Rq8VnIdnd/s/FKFrS2G3ruJK7uHvmww5q+rsnWdRetMAnMpkkiCwAWx8l//y64/f//LluxR+/e3b1398+Z+ffvjtx+/yf3yX0k8///jl20+/rX/6Lv/nd/kvf/v67cvfv339188//P7vv3y/Jfc//dfX/95/4X9/1xvzkfLWSuH/fv8vuTzG7//lr78r/POnnz8qxKIKJaFCaKoQOiiMx5wfFfKj0yMthagKmX9hyDuk6zc/U+hNFVpAhdZVIfIvFHnp+KgFFbIpRH7pJI8UHp0VYlWFzI8UPu6lNB+TVqk/xlSFQr/QH/3jI6X17Rsq/PszvSkUeun+KPIO/fQLqarC4R3kPKR27d97hfYYXRUyPVJ7NPmF+hh0RJu9dH0k/oUky1oenb50fcyqCpEeqT6abI38qGQE6qN8NAJpnWn6DvURsyrg9l6GUd4hPjor1KYK/z5SnynIEU3h+hP3CvkxxweFuE4cbe/8aKaQyS49LelTYRlP2q35EaoqJPrS6dHTR4V1aGlZ12caqoAXSnqEj+Y+tkel3Rp188Xn/v1MISdVwGUN1958Kjx312cKspeWQqbzEB5RVinjh+vzMYIqZFYoopDQzHS72JcCvcNSqLL5Iq7SUpAzvRToO/Su93RcX4beoV/X+JtCoUdqupcmuhpLXr7bRLvX63VYXvKB/v4yex/t5HJV6PnNiK3jDKdzyYePR6GjP9nztXwvebo++9pjQ+QDPX96pI/r365Pfi8fr4vsJZ9pQ8RruS/5iha4B3X01geEv9+m3v7rah4onz7uh4L+SxvXz7/kaT+0roe4oDOy5OUCWRuEnr+pi5fRqCx5OfL5Mhr38vVRk8jTrd/K5cK+5MlxWfLp4/5M6AO3fC33S77B+V3ycr7StaHu5ZNa6YRWvcUrKHjJk8/SokYJ67al9w2XOXsa0MeA/VPnZY9f8hQMLnm9ih8N3reu0C6KPPkGSz7KrYc3TO1XvPGSTyTfNDaNGDhWc8Uj2v+69v9QeXrfop4KX5BLPkeRpyu7Zg1WVlQK9qHa/g+X/3gvn9T+hOsH7+WfPv2bPP39qPfp2uC0/kH3A7v4ZV7m700enmfJR11Psg9l+Vj6/IWep2sUFK7g8TN5cZjCFajdyze1D+EyYPfy9TIff1hezstB3vyfgHBXyWqv2D9c8nJfLHnY/yXpfXHYD8sc2/6k7xs1ugpoP0vQ+4LP15K3/dnh7+fp60/2IY/L/fpj9mfJm32YsJ9zf3QJAK4F/kw+6f0SSb6pPx+vP/CZfND7hfzVXK/r7SVP5zeb/V/3I61nMcAA90N+RqVv9zt936x4W0T0LCcDki6U8jN5hYWuDXsvHw1hxPt9yQf1l3D9g9rnhP7tDi/V/6T78YW4vuQHrH9ysB3XM9n5yujP7HBRsPlHhv225MXfy9eC3cs3vU8zxoOv8O8tHoF44QW1vsU79Dz1gkBe8rg+RdeH469k57FgXmG9nnzfgv72ki9N5Ml+7u3y8e/XK6F0L58UA6oYr+3jmkSe7NU2T0PkKSuyzXETecJz9vXz8fs2hEOXfFa8gvyHDfhWkaf4MU71rxp+ryUv/m3H/RmH2tvOz29pqY72Knb19wbGL7GrfRtonzeWrPIV7GG0+3pgvL/kk+J1tB9i1fM+cT8vecnlTLTnS16SdjGgwxGLOqBLgSzKUpATsxTwkbJCLjFeWerPFBRTiBiELYVowDIli17I9jt0TauULOxPl6H5TEHy6jEjsLmh8KgK5EksBUEeDxmBpaAphHIFT/cKQbHKpYDfIRgYURA93XvTMjN0/S0FgQuWAiXtpsKP68AS3jevaO1NnvwPq7dY8oMyRZbh62i/xnVbv8nTvhv2/APx2WHPPxBfeFrnN3myj5bh3wlKykIpnLvkyV/puoHWhUv+R9fwasfPhIequd7xJOHRjybhxjMA/0S+JJWnQ+yZ+oS2tCq8v/FowsuuaO0pnxl/VHdu++twvp7H+02eLHVVeOHlAN/jEQoXbAeb8CB734rrWSw8rIyPWClGw/UsVn7SMF/4zL68yVNq28KBHXBRfG4VOh3XM+sN8LIwn8jr+nD+MltJxUT7ljV82P4W7M90Zdfe5CnfZo5EDpg/MPgiB8ynpss6PeUj5guT2pPM+RVLp27ABP++eFo54feyWo3M+baocOuSR5dDqxwy5yMtPMwF8dOo+zlXduPUT9wAHXmiag83AIjyyeT574v9zJxfj2pPljytT7DizoH2LRjcNDAfEww+mpi/DGrPlzzFz0GrlUpAexU0vVUYv36i7U95xnOD3qdLfsB9F9RfKow/WrlC4VLZoP5kyegvWTqsFMTH7+QJv3N5vq/v5Mm/cvmG96OvZ8P7IihcX/phPfX7jsP+l9B5yVN8FPR+KfNP7s+JeH1Qf6ly/jIo/FIjFgMGLfiqnJ8IWh5QE5bGBq0UX/KUfwoaxdeM9U8WYtdnwdUfs59LnvJ5Qf3hWhnv0/i6VrRvdl/Uhv55VFiksr8aLzTtKd/RH47qz7wKPD67f4fKk/2x+71OrJ+LBnfPK+H4x/yTFjBfEjV9ueQRr9T90yLuT/Pfljzi4+pvtHTwt7OU5zFMlhT+bVwfli7v8SnP/mFSvGXJE16ctOWhVfR/sq1nxb+fNd5v7eo3+EQ+V5Wn85L1fmkd8XcrOG8dGzCylpfsgkOqP1D708Yh3pdylMb17JY+a3x+i96PS57sQ9H908Mh3pd4pweuV9NytX6o31J72Nn/rGrf+qE+T7MHPWF8VzV9tuTpfZuVH3M+2/CxnvF+b5qeW/LUrdA0HuycD25aTrPkCR9oij8s+U710FquuQvCYf272oclT/VJXfd/r5gvN7x3F8BT/bqmOzvHs0PvlyVP+2FofN07xgvD3rejfR5aXrjkKf867LwP3J+erh2Ih0wt1+wD7cPUeKTPC4H8RL6bPK3P1Nxf53ghBjVwI7CDFdSDGIzoRwuplgKVLC8F+cYjIka2e06aKlDQ45m5wVmAnfuTrg82u0tB09qME+x05FQFCiQ94TkOCU+rZN/NaZxSlVhvKVCXYjQwdxQsboqGLi8F9L6zhrdLAdPC+bIOT4WK98dO0U5VwEeyfP7uvfxTFQOjYQgarTVzKeAjVQ2Kd0srF2EkOaKdV8mrNjqWFUXr2h2d476uQM/oGAgtBSm03C3e9A7WAT4YGo3W9r475+mlp5nKiZfPzr02VSA0OAVNJy8Fgks2vvLxkWZAQ5bMVM5DwiUqYju5ovnVIPOmgCVwVsI9I9ZV7KSUKWAQbk0VMyKqvcOioQoEs+y45eMRnYnfoWqiciZ+BzMCkytoUlNoZimQK/PKfD4VMmKl7txOvoGSUSgsBTqi2z3sqkC+RrIm3FkYTwgKKMyCZmYpaANr4QrweFnSNwUs6U4as02+47ymeymQz7f5QEyBulxy0a7OWfEALYVuCoSreR3+5EKjbHfcUqDu6ezbm0OlbM3QS4FcuDxs8zW8UHYuTt6hY/XNUpBqz6VAL12CtrPOzv0xBuguBXISi/mtS4EybjthJoZsYMq2ZNveA21rKZp0WwrkYJWqTUdzcNdR0yhrsq+xs1pJFQiXKF2DpqVAgXoxcoA5EYks04zARKi/Bm3dWQr0HXbqqZgCFUNFbWZfCoRe1mTXLjPm1GxX1sT6xFpuVolcuFrVhVsK2HHbtANmK9A7tJtVIt+7dnMSOalfh4b4W4G6UK3L+PBILWhb0VYgnDFo4HdYpd247Y9ESGPSzqL9pekdsoaWk2ujduqkqQJdu61odc6c2J3ZnsUy7weIHqmZ5WP8ailMtxq0SnebDxkP/BZ9Fv3eK0xzTgbWEC8F9SoHemSbpMKMMe3WHu1iH+gkdqMZ2DcQ1e1aodq+46iQONvmG/jh+t21S/d0t1b32fE7LAX1BPoVMN8rVDuiHa/d3mxrdIbrm8Wi7GB162fdLhz9QtcKq6VAcFEfFj+0E+vPNDcUOV6mcs4sBcJb+zQj0DBoGoYZzydPyb2Cuw6V6cuiWb7KLImWmV8KyKiWtDRoKZBtHVmBwcm5pZFtexemwjO+s6VAF/so9qUL8/8Z3ctSoNByWIH6DsCZCk/vuIxGYJPtZVVA+jLj/1sK+A7W5LCRkwNLoilQF//oWrZ0QH82W6XBRQd6S2mkmJEba6Z2pszInJ7TvnRkIzDNI2OugBnsOzA5wgyKrE9m15iWmpoBY6Bp7er7rSh/Z+jPmNgAulfdIGAylRuZFFR6YIvBtBr0wSSg04qGxuBHMkBqcNfDTAb2c5vszFq3shTww1mjxGAwZ2bLljUEyjcyOVWBsmXLMGqqlnthpjlYg8nPNjL58cS97PlnCt0UsH3PXLjBRKbT+fYyn+lqSZeMju6siv6MhJZvWg3Ozu3SsloP8suZuFewKpzBLFxLQbzKEZF2Y1odzjiYyqZw0aFOYBoRXZ94T8+mW2OXRtCydq2F7RyWTeMa7s/u+c8U5H7oHVG4DZZ2VUi0vbseoM6p2h0iDVVA22qs0r0iTPEK894U8NodeuJWoEbOyQ5V5aUzYpU7GC6qgGd6qAu34l9CpV8B/ZsC5YFekMFTIbIRMPbWzmUwL9jjTQFP3NQP1xjBmtZM3Qbm2F9w7JsCJfA2mmTlqGgELB/XOuYUp/Hv7ALcg4JU1HKk+AJ83xSo1mEryCOV00sLR9dSIGf9BTQ+Fbhr71aBoqwbhcSesStEbLS8WaXIxti/A1MX7i/dVeGwrOLz1Xk5159u76kK1H21FeQXDuWFU/HWyvwCc941cPBLa4cI04FvuyQtFo1LEs3y1ca+t3Fk1cqGbGhXcGVWpGk0D5Xb4KaFx5V5pqalRGrm+MEuxZr5PAzNoexWKfYExEmsia23cbXWiJU508iNKxdiujdTIxYxbn9JNh/zK85uDW4B8dbtwkkH6cFv7WoEdqaUvnTXnuJyqBnumh3YyVs6QF2xmXKwGjYjo3B53quy4U0B66qbNgaVhmn/2RR6XAqIOhjTXGHqhw0pW68qOolNXenCiO4O/OSlC5aFzWrLygxAOxYNqkD19q/CnadCPkW7AiIU7gDbEXtXBfRbq0a7u+SDgRCxGpvVlb5DsWVN/OEM9y6RjUCxl458Hgz9KYF/IVtne+AYKCuSmJnKbCkoF8HkkCZpieGrQOkzBfH58uCXTur+ZE5zTquFWwrokUUbTdWxYXQpyP2QO99x0QZHdSyD2ZixcU7gebCm6c2Ce8C9hyrgXgrKunegzRgWZW0eD8rSmLOemQhzTBtEUHiyztQDlAsnXaY6iUsBJ+tMtUuZm8V3wsJ/gRWUDqYwBGyEb7mwGxqMb7ZgA9oMGrFnnpgxjaEzcwvvVsiqgAcoaAyUK9aRzaBp/8xNH+tLS/5hK1Db2tT61szEe2MqgpUrHtExjbmoIhHlPnH2SBSW3R9Ryilas1s+TGmaxv7Du3VMo3fi87CP6J86ccP4oP/AEf1TVmPv1movzb+QTQGzZbdHlO7pP61gNBNrL+HFHu0XuM9+OpFUw9I2T3NmrmqZxnycuRp7Keh34F7XmbS4+kD2tB0sc07QWc+aLctMB/dqwHhTwIAjazydeYTkNAa8zDW603pp8uTtXRQC3pxS7Kx3c6UxrVNsaNMBq6wW4kccw7TDMonjuMH0VXz0pkCDNXak2FWBCp6mM7Fzg+m0IZWF23umVdstBUR0rZSnFLYaTWtOCk/bnc3Qn8LhgHVClnrKvEqmqTDD+rRWgHJIWHStOSnc6TJtxsxSwO/QjXS/cxKyG+rQsZdmo3BTFdDMdDvTTGQybVBCOZTBdKV2Kkw9Podtby5Bn8Ow+8BQvJV61sDlF0NxjaWAgNTQ1FSNfO1a5nU3aRygeEF0eQLIBvtN4YCsKycXz9CYNnK7ZiTd9MxrPVS1TJuCULB4zhOptZ6yNHIp7sllhySkZAc4xJ/mrFemPtr9FPIOXMm8FJQ8jsnIpvVPVy5BXwpKHzdOqyQeWeXuhK1gKcJDUl7M/c5a8ubTCRaBYWwLaRpjlTEEzScckrt3Guye3GkcU9TilLV8OkP63oVTQb6yBYeb3Hw7jvKnIUa7GOGg4OUOBwUvqOB36F6ywdZSYvBXR86nClJ2Mk92QOsjDhepoY+7dOZgLZ3m62CPpTIsnkyTJF974hT1NOaxxEGKFxhl3nx2kXbmhp9DzWs/VHsOdY53Kdmh0CuoAt68Nh6r83wg97F646LBoeUOvXPuqBvlVEfUy3Pa/VBV1RVH6DwUYnYbEs19gdvBdxopVhDUa4RT7KdcQTxo0OOmwcx6OzILqoDW22ZDjIQI6rRZREsB7ZING9w9P4wjaI14PpUaS/fkOKZ35cQN5rPwfPAoHCx6BTe3NU3rIRr1VFQu2OBuEuI6d0Gyd5MQI0b6pRt/6aLezIFRadrgh9E5fs324TrjOdne4VAUktRfGsfkq26+wScuWZMFUwpM4woa3L+/m5i8/4YeyfsCjx0+cqHMwI9kFNTzkPn3ZsjIH85mxE4eijPMSXzB7Z8paDdxPKWCtHsyoUc2hjXWJoTJbjveKEYZNol5o+eU/7JReBs95zY/JeZhstNhbKcz47U7mtEiFEQfX9x0bwpU1zuq9SsfMmxWa7PLdbjHVLCQ141xr5CtI7oivjlsRvTkISGbetHYiDAPaXUqLzD8XiHaOzSM8ocNIplMArj7ebIq4AEKigJvl4ta2Q3P2U4dUQo48ULHzH93XhGuMuxGb7tdX27Hl/jhhTzfKzQzlR23Rvf2447OyY54jDyCXIcdU5kC7aVuQ7Im90F1GzK9gWR6JBsQ+WrhuVfwZnmeC9Cj3aIDYYoezZANbJbvNtpjMkzRpl0o3Im7FPSenpit3cCKKSBdS9eIfSMdRGpjuaM5sbqtNU0FnVhwqmZ2TsQ8NrH5hQt/pqBmhn2+lm/YiMh1aL5bubRykwvZO1BBxaYvcgXi2QlGqzaRBadaK8oLUL1XMGP8htnea3RFBo8azfjqDm/RbijDCECtVQnrtwIR7hejLeBvXW3Ew1aAb12T+WTccVCjFjGd6LZsathWYOo2t0wUgpe73USGphjSN3lQaXF2xYlZvNJuzDEVCxTrut43BJElum/Md1BxcjievliM73py50ex+YivHPFnCjfOA/EGWjnz5AniJdyQMNF5yJaB2IAnMXU6FUnHEDzb0PTtVzK1p9IAdkws5mbfgUmYsjNPMcK0y0GNbZRc3WxE5ZOh8pztDmrMK5vN1a14HvIdRRI5D9ngnMmFuktBHVEGH7MNjJtMgZGcYpVbCZNlgl7dJvcKVoMxuccnGRX6gVMpWT3PhiPpHZoFlxn9+6Wg7klGc++DjidD5UtBjQDjP8nKBmfC0C9l47ZKaFtTtiPKpALJ6j0nF88kK0GdkcdnRXOmmYRpD2yzXyDL5xP2NrxJHy4YgzCPZIpWUvEq+P9MQQcosPcdh9ELcdFGtDHwY2K1/p4S//F+GExaGbsagXEYnNct7cKkxtFoz8bguRSGbIyObHI3cyk6ZqiXgrLUdB4oYuPIN2sTfYditDaHeYo2AG0cBggbdjK4yzQ68xQXkcSsrsOovErJck3lNNhFD1DhR0q2+Q6TYCykOc2aiXYeGIxfCs4LhfNynLrtMJHHZpGOU82Twv17qhC9tHV+vHDkzxQ0LR+RQdgKmDaPFI6nUuK2wHXuZifZ1hv9xQhcXW2cOYzkDGNTmswNqe/bJ+dbrJ5lHJ7Hx4kR/Da0Z6UfoF8b/9axadLww95x/9gt1ftpPJ6NlyNnod+Mo6Mj5uP9uM2o2fuysW72vpyKalauxM2STXthOvMBVKsBK1jCYmSqG+rn8ZNJ5Sl2qVZ4xF689c10HlpT9errCf0uKy3pEaM7Hy8aGX+xcYacqrfxqD0cxp2K99ED0q/7eFfGIrNew20iiaUNStoMYhSPqz1sjGdlDUwbF3Rb3qlxOi9fgMabPI7DsvG6jNJYRUxrWH2bbPwtD5OzmX5LntC7pOer8fw88+MOzGTRSqy5c8LcviVPKbOoHQEtIZAd1cNa8uj0aYKtRcS9ja23BbTn0Rj3AhZiRvXfKs93Mxr0yhNUgvoDdWAxX7D2h4FVzEELKQ5sZME6PhqGxcFaSrgrOGjysVb0fywHvPNHuD7i3+6+HtjPNihiydP+NKykZvTHjDphc4Th+ou/XblMy3hBKheOBc2+bb4v3J/i71WOFyzeKYz0BGPWmui/2bTcwmOZgsYjZWC8EKx1kzvEjUBkD47C76VUS0xSbU055XReXJ6gapdn8PxOniLmoPd7YZza14eZ/G0aYGGaTN8PDPD6/owHey7npQTELIwppQRMqpp9yBPvd6duYYJMJ54Yh/tCKUnYPwxGktLxfg/aqpRP95FSBjFpXdA0Ya6H/TZNnux/vCEYor9v/kbmeR/RuEsyT+nVeD/zLI5oNFKZBxNrvjxz1bAN/drDNAlQ0/RJjjwz2NhjmJfd/O3MtOzJ1p8b3ZIC6onjQSNs2wPvMV6QeCfxiGSLpzZiRilmtc+Jexiy4iepY/VyVoA1MaWL1fqkhiQCNiMrcbohazItMfdD0fso1QNeIfFIYpq2onX/if3bonjR/kV8HrGHiYf72Cz1lDElW9VfTQmLQA2/2hE34leChySON6t9X7YnTf2HbbGpPFOTHomTsc32c8CkoQ15iFxN19QeRh6B2NU/idwgZDwjcWBK0oYNxkMltMbLkXs7h8Y7kefUGD9H7Lh/hj1/4+4MxcPjofFNz0uszNqrtV5LHskxFR+I3PsRjakvcvdhNLbBpUARXgy2pNwVHaPGGJFjjGigUeS56UtBSh93Bpe8smSPlDDM2/+7qQL6WUkdp/2QnAYXy7UUEnla2Y5CQFMdDbuOgX2/YsYlYLIkFmUQnTjBIxqx8USOgH1WVJ4uy2gMXQMPZ7QR6NyUsW2JZI95fax5oGNyJdoYvM5gbrfsDdYuRWPI56LNJS9V+kwNEH3gCoPFxkDLxtfRoIYFOTsaFnQTnz/ZjGRmItvRm9AcoSnd0ZKguWjcU9Ky3EPppRkhnmbp2aGCl1MyrsOC4EsqhtZwuZ/Zk4wWLlVFH3mkRDJyeGZuTzalPuOtkZo//6EuVRk2uaSzK7qfeD8Mi/Z4fYbun0MB6NRoO2HFtXs3Ca+8FbuLY8AckEteqlciglM5amVZ5Jp0Qy8ighHZ0ILIydes+42Lk7KNWIwY7GVjbYhc8F7UXkW0V16CH7HMOhtBZsBOotw0+8TBW7aSTy4myBb9BCwe3m0TU+XpfW1GWsBinWyM1Bx8FsvGBLTPJeh554FqxRz1wOBF1OpTZm7bUyv0e9F+23M0dP+Q/SxWsB7Q/9mzRvR9yd8o1kvH3X07d9T+jPzN/kf5fvM83FIm9vPwvjaGMGBwXqZW6wQuBrIGYt4P1XpVAibjq7F08yikaiQFHB9Vo3NhHuZqMWFAf35P0NK/T+BpteoqZmapVcNmZlOthvYFLs5rbj+xuK2pfx7Qn682fZTvl2roVDh1AGuEjf5tNQ7SiPunWTY1MvgYdP15BGeLmr08gK1Rs21cbd2seityz7YNpWZKwCWv6Dj6P82mGCUsJmjV0GV+36rVOpycc66AjMWLS178pYznsdn+z/z8w3iv8T5ttv+5C6JNY73G894N3Kx433WvlsLz0qNVA2Fxc49qfxred938fy7O7lmzzZw869mGJWPyY9c+S/U0c7sUa0Lh9ff2JH7fat0ViB/2pvgYt8h3G/vHvBdLXvyHDYAyW46Ul0dOT3cjLIkRXY5uoz83rkx7zogHIhvRPYW8qAKlMIcxa0SuUR3G1xa5CHYE9dPjgcXLLzJu4BpRkZRYMfTZA+qzKtDZHEkrE2PjAUdJnbnIU85eVJlPBa7d2VSZltwjf2WYfdnZQ6LBs3R7nOjx7rY5U8D8YVEI/uDDjqI25lUDdK9QNSlw8IpeZJxPhYSwyrAmk5R4UptxIayLHEnqrK0mcRnSsKkdqSA0uhQEythgLLMLyt220Vh6JGuFSo2PqHk7h3TFMJ7hQ/5kKQj+txSwe20owJ6YfeTVkvymQPWQwxrqDnfisHkUh0txDJvUxlHvGOolLYXDmEBJ62QeejyMJ+yF5H6mIImvzMQDzue5sVwei6aj3RibHzYfPmcEw8e0QVMH8sypaOauRTzM5JNlLcimNozqIxdkSLxVwFvUEKCtcJhnl1SBCt5f9LfvCszcqkFexSjv5sNxO/owev+twOfBJxeeppH6O/Aq+Yg9vFDmzZxNJAC1XFI+0KROLdXLhY3xWWH9wy/f//bj7//yt5/++c9ff/v29R9f3v//375++/L3b1//9fMPz//064/f//Jl/dv/Aw==);lineShape=1;strokeColor=default;strokeWidth=0;" vertex="1" parent="eGeyz6QdcLcYbzC0eajq-1">
          <mxGeometry x="442.6885215938353" y="6.566489072596937" width="261.6726114414155" height="317.4900736372682" as="geometry" />
        </mxCell>
        <mxCell id="JKelvmIhbmDu9MPVq55F-10" value="" style="shape=stencil(rZ3b0iQ3boSfZm47eD5cr+33UIRGOxMraxQjre19+yUtV/ffmd0fVxG+0wH4u4pFgkAiAXzKf/ntyw+/fv6Uwm+/f//2t8///fXH3798yv/2KaWvv3z5/P3r7+ufPuV//5T/8tO375//+v3b33/58Y9///WHLbn/6T+//df+C//zh94ctzi3Vgr/+OO/lHAb/X//y3/8ofDz119EYahCSazQnhTyvPWDQn5WGLc5USEUVUgRFPptikK/1YwKIzwrtFvnX/i/V/ygkBoqNHnpeuv0HdYTR1VIrJCfP1wut15RIRVVOCxrkF/It0Yv3W4zqEIMqNBFIfGHa7cijxRvk156faasCpmWtd5mf1YI/OHqrU1ViLRK9ZafFdK8VXqHqt8hrQNEJ25thKwKmb5DueXnM53W/i2gkG9zqEKgvZRv9XlZU+PvsHZOfVaovL2T7qWlEOmR0i3JL5RbIbsUr41wV8i3MVAhDVVIpLC2mmyNdGusoL+QbgGWdSxbLV864ksvBbEaKeDmG+OypB8UMny4pRCflzXOaxleK6y9mVQhgdVYCuH5pePAZR3tVoMqRPqFeq3JXWHZc/qFZQSKKgRapbtxvyush6TvUPSeXgqBFNYRFYV63UmvFdJlej8okBFYClkUCv/COnFFFfAdovoacb0VGLIRrkX8oBDgw/Wpd1xcRxTeYSmkpgq0l/q4/t5dId4anOlu7s9SiHCAloI+UrhujNcKTa13DGjIer2NZ0M2b4N+oF6eyEO+0KKWy0245Nml7MtQV5Gn47nk5fDcjdRr+XQrzwvULzv7Wt6uko42csmHZ/mGbk8P1+X6kKf3bfPaYQ95cg3bWu7n9VkfHN53yctdW9F4tX6d2oc87ejW9PsWjHqWvNw55drhr+WrmonlOtPz3H/+IU+WccnL+mTcPy1f7tlDngzpkteQCs9vW/tZn4dupxavz3+/9PG8L/kkjs51p7+WD+bR3gr9/aDfN2EwVae6FMtGw/Ms+aDPH8DBrsMM6GUg38kHuSlvHb5X7VcE8ZAnB2fJy36It0rP0/zv0/ld8vb36XvVquc9XhHJO3lbHwpwavHnJ49xyavHeMEkr+Xdd8I7fsnb3yevoyb/+wHcmpr0vohof+r981/y4Qrw3snHqPL0vYLCIeHyWd7Jy/3LQUeZGvyFy017Jy/2NuB5LEMDs6N81vdF+X4r+r4o325Nn3/CfivretbzRfthyfv+p/Ustyw+K56v8uK8ZNhvJam/FK8/8Fo+qn/C9nPJK9qAcUYJ+r4J79M89fsm9DeWfND7qMN5yUPtW8L9v+QV2kPYIHeNSfIFC7yTj0nkyf7nZnAp+gNLPurzDJKv+vzLwNPzVP37dwfttXzxv19oPct1nB7yhD/nfLnvD3myn9nul4r314Zd1d/G75V0f1b0N3JUdLvy89/N078Wj2QL4xuiWks+qDzZh43QPst3PC/Jzm9Hf2aHo0XkCWlP5h92vK+T+YcMCD9e7yFP53GHl1PkKT5d8oLTTIyn9vZqIt9gfz7CxYc8rk9R0DKG6wZ/p+AQCoE020AJMhXxilkKkiaInLnYJn+oAhmVxx30AZkKtOuSIbUJc4X71jXsi6Dd7QaIn5JvEQzFw+/5oEAnfyloJJAv3+idgr40p802ej1UgcCXeMe6PiiQN70UNPqpCB9tuLurAiVTloLE57FdHtJrhW6waEMPLXZF8JYCvnS379DxPKy/J0nepUCbbymUZ6O9lwG29wbUqypQ2myvujzSHUh4p6B+9eRlLXoe1v4lT2fvTcvvEJS0FBRa4Vhxny/xlSM6R/sEF1U4/IJ4O9u00TskPQ8pYzwd04tMHjnwy/ROeemC2ciloN+hXDHeOwUhbqxLL8Gdvi4ouYEOGdWlIMn2nbOldwjq9S8FTJCqpVx+R6G08+WU3uUH3qGO0q3zCUs0NMe2/gLBzuNWgsqTG+lRV8Cwt+v1ueQxzWGoLcN6/bpb7/IJDV7THbTk6e5sauNXXFII1jYUvDAsdq3GB/lOMKCmE1ecl+F96+VKfJBH2MoYNg2tRL1A47t8x/1WFAVZ8gSzm21fcT9Z3qKoVZ4IgxeL8jlzn/Vy2lwzCqv1e5WIRtRQpcKwj7nYJaH9yZqlLPnwPOIfLHniEqXLWt7lC4bhydan4nlJl/X7IE+wUlLUqrRrxd7Iy/4pHa/VZGTFfpGp3shLVPrAWV9fSEpQKJwmjpZF5DDTwpsaMM0UFbVd8pMuVN3PldMuUbPQNWH0FJVCWBlmtKxdzVe89k4+qTzB+IbC7rwNuTR6n+68EH7fkFWefKygEXVteD8GJWIsebKHQYOmyjSAoPuzdoR5zeOrA+1buEDUD/IUkwX17OvE4NvkW8A0hD3Pkid6qMtHBDRsfZY83ddBs/qN2XZBg4AlT/5Y0KxF4/slGoqZD/ZK/OFWkKoaNdRr7F9F9d9axTRBVD5YY5J01PuoNfTfoqLmD57IO3su69nRP496Xy95sm9J/YE20B9O6k+2ieclaXy05Al5Ssoi6YHRNt3/Sx5hf/UPe0T7af5Yj0iDydev3+UTwtpZud2d45ei913PCOMXZZFs3hn68/o85Yoo38QL4l8tefIfqqLaveLfb/a9Kt4vzbIWDc9Ls/dtSBvrCsj1jv5Gt/3ZMS04Lutxl+e0yFC8YsljbYDawz7RHk5lOS158oc3C/P5BUZA3snmeZrCAceS+okRkem0cw5VFSjG29BaUwU6NI8Uwl0h8S2Q9dgsBQS+str1kTEuj0URy8H5602Ulu9QkGC3FCR0G1yssPH6qQroezfd3JujzoB8NgXE17u606MhSyQOe+nG+LoVKzyo/+8UxANfCoSQbHB8qAJBnMlqQMYh9RoV1NoVFQQCJLXyY6JX9+BifFBAN8FKCcYxnSrlEDMwcFD1Jp/3WOG1QlNXcBfbcEZbbPFSICzYU+wzIniwFIQDOxMnbI10PQ8sn6BlKfOAP5mDPRmA3fiv/QJ9h5wVkpkFE4XZfLDJhiwblXopkNP2KLS8K1Qk72/y0VAFZO90ZTssBcQZhwLJs6FdypbpWArk+RQj/C8FKkspUX2fpUCU+WIpsNnR1yhZXYfJCdtSNKO1q2iJdViNRcL+XmkaAO9aY1ol40kvBTIzxe64pYAvPRQjWAqE8ZWpVM45kHlSg6KUS2FQlBHtPAxklzo7eU70ZqrdQEuBAs9qkdhkT7r61piYu1wK094BKejNzAzXLDlHfyvQOwxN/p8Uphnjo4JQJLYCbL4H/vZRgSJEg4QOy7oUBEM9fLiWNOieE7maLV/+18fNR1GrFTtvBXrpYmw1xm1aNWM8MLBvlvmcA2+g1uyRmKqyka+sCoV+YShlc7KjuxSEDLM7RdBLTw04JsNtPWh+YPdxgEdaCt0UyDnpUSkSs+Pm6+nFHUdboxvmtpsmEGZilfazYRKlW+3Z5CzHBp1EgdPivSrOOCtuvt6UBjgrAz9dM+m7aQIVnHa745iBvZGhogp0sfdpj8S1yxvrkV/ImJ0aQZGTpUDpx6UguMYKOAhqGZZQXArYLcAQ7qVAGbnh1psr1zYS01UBXzor5DUDJgFGURBhckecYbSMHR7TS1f1ZnYATlXq1SCvyW0emv3Cgflk3sxuy0AvbfH0oy3DOwWFKTqae+8LMbiIeVjh/GhIPxjG0l8LTaZyTMP5mKm7FLTunBH+aWd6MD15KQinYLARmFFDmpHwUlwKQk8eXBw7oyGJTFuYSfMOg3kR08rtR0Ancdu5Z2N8QNanp64mRuzTSKvrxiDuzjRy005W0DsU/XBLgfzWfUHJOzRuNFQU3Oz11GhIYtFesY5jVg3Ae+GWUuYZd67cWgoSZS2HCE9ctaROOjV8Et97O3XcFktAtR7R3O8uV6LA5Z3Tym86l69MM/dtIsg8m/p8S4Fwvgc4dFcYyFzf4NDzSzeuaZpWM7sU8Et3TSe0hvTJHS0UVTj0ZFOCSD31lZO91Bir3CGSvMPhAA3lLDYGaKclRR/NJt4pFFPA8zC0GLAdulwN3d5LATvXWb1Li9w8zDK77dg2Ub80U5l2QC/cMOaWbwUhnw3El6Z5M7Xzsk6jw90T9P/qL3AC74UCt5R64CR3hYKI7ksF3HwWllVunbK/g5Eq0TkZmvyqzErxvVTjqaOm8vTi6UyLud8NGfgdJGhaChTH+YkrnFOcQwO/wqVQ01qolIFkNzczG5znMy1ZmtL5Fh0v+NGEzWzbOlWB0glujEtlv9UaLS2FxHtJOyEVTEL6DVQKt0IdagQKsxS3QlAFPNPd6grS6doVv7UcXDjrR1W4Sm4rdFUgksrsCtAuhYODJSFNOdxA3TqbTvYqX3X6PVg+STdvBd5L2lYrYMT+AK0/rhKfh26/gH1Hh3Kw9pfm7S1I4lI4+Bray+EQ7ZqDVSLHQEMRrBJPtlULVQ4KXbkOp0cy9KdwRx931ktg2/ryiB46LldVIPbitL6jSwGtd1cu3N7efKYlGbwPEO8lMcbnIyrA4Fbg+6GYISMC4DQUrjCpeFoeaH8H/oUXR/T/VWFqQXFJTNycWklZEubYHynHD3ccIifzRe0Zse22gl3slJraedaiCogJTIUpSuWwzLoglcrQ49R0c2mnd6jmYGEcN83MHHy+Vwp4gKYCtMtvxR7nUxuKH6rWptGGC5fhbAULB/BMTyv0CYzoGu5duRJnK0xVQNRhqs9XuXZ5K1gch8UgIfzJUPGVxjEaFfznHO8qKnCMqF/UsPH203VqjMNNhQZr5wjCvzWXJc9pdWyTQ45pwF3gQQRT+481bmqxDY0hTNi6YGpw2ZjmPq0rTGM66YMn80EBU0d2pWxqDG8+BR+57ZpjWK3wLxiHdnfSZVdXvzS3wnH3pFX+Dhbkt4YFDS8A1M5dKizOasx79AC5Dc4EdSuMZLrQ7BpnbfINO9PF8gMY+lkP8h44KWJN/PsB9LKe0I+u2+8UtBwucUBgDYN65hDcijL6AQoxVuJm63BySku+uERsU53lF+ppGolmsxqnLKwl0a76ovNQ7Dt0ZK3vRKflXtHcF0W+++ArK9uyMo1xKWhxzMHFsl4RI/DWsHknI7JvnHSVdqEVMwXEExgJKYDTuggPbiv6qNn4oIDZrKCg12br0CoFRVyXAgVmw9yfQxnUmNZaseKJG9PYDg239zBsfTBncFjOb3Q805ubIxVBg2lbzv4ZWNm++UWiwHD/ZjAVVSAcbnOknpd1MpY4vEckowKjaCQ3OS0/inaRndzWfI9gsZojHIWTjAecEJLaJziqAmWCto2QZeU7btiZ3tQYMPfDSup2zRERVqdRxAvPO5lWPVBwL3VLTk0unvQRLJOnt/kIlk1coXdotkpcm/1iBAvnmno1anLD0HIXq5sCMZh6Vhrjdup4bIsTuOkAbYfNfgGn83itS+eS9GD1a+xr9KA43OSmRc1CyznQejfLH8+BGYhmOb/J7Xpbt/o1bgzWmn1pbvC7B7J4JQrVJ1T1vSffD61opLiDflZQLvNEJ7FlnaK3gQtaJWtDuRVoDI15ZJNTeC3a5ptIWG3WHncyl7kaNPgBBXunobMFThrjRcUOPpQ1lz289i7mss1BBr/awLf96Q4TS+xE0NVei5VPTkxqVws59gYnhWTlxBMdoA3J2ktTgLxLD+0XCLgr1hH0YGjKeFENSSSPYo2KH2ya1wrGfNwQEhjL8qo2i/z7UjUa3Vk6UihW5zfQ1S3GZp7MNX7QIT4oUDK1uNfXkZG9U6dVFSg3mqcZAe7Zn4eZYy6Eyl0p3PMwdcD6m04O/fYYiqQKhPRl60t/8CtztorOgjdETlZ/zN3K9+iHrAo4C8S6iO3psfTSNlxl8hDH3RfYfoHw0DQskkvcbqJrBmJyp9DUlfQ0E27vZIOKdyEUdfGotlu5ECp5VSpzXFM2Uxm4XZnN7N0hOA8UECduTLStu0NbUAXCf7yF4xj8pc1dHwNZ5XG+6AiDTUbHi54zOB/AOH2jI+IajajygF/eKUhCYRwa6zWD1Sq2wYnVgLvKbaFsIuiomEWJ1nxtFIyoo4HA49ANMVvVUUaebkz2pZnksRTkyhoJvcpo6MzgiRzRWriOQ2/9YIWBEekL0S72wbPDpiGDgTFg+/sBb2lr6t45jBtqAPpkKMdKywY69v1FsgIbHCiO0/uh6boWonFTWS9n4qZ8XmDFk9ytE0fnWbFFcdzOGV1P/jCFwro5dJ7laqNWO89mzeq99MxepNrenvji1ytwl59xU1B5nohwUtJLvPPQAZt00blc2hC3NnE/W4uFxufRGq61gXFzNFLDwLyyTRxq/dDUV0uLOlJlraB38w3AQgflve7mIPj3izMmsImxNunl82UOVOOUddDIsWWkHQalWi55wrWtCUjj8xW0zLZxuXOwUXU8dMM4Yscm1Sp/aoKtz3Nqsq0VVPOw37SmayDTw9azskNt36vyfWdDZ5Y82XOb57XBP1zPlFSe3MSg9mcz9HA95f6qFdHQoPa8FqwLDIrd14yUqqDphyWfcP9LWFkTEhesHVlNB3solLAaD++ro+kDphOjgmmP4cPv7gshMc/DUAblYQ8Mu6PViA2eN/eizI3QEhtCsRFOXB9J5ZR2aOquxViMcflQD0askp7HQ/2ZpQR3+Rk+jw6RSYfnUfY1zwK2oLBwI9KsiYPCrIOs9qcEXB+LavPE+8uarmfuVWYoUh7IUyoaL2T2r4rGzLlhMrMogT/zVLOiNMLMs25tdHCueL9X7dyZCzft03gkM13CMlU5I3rU9Hw9hgO/kdchX5F712nGJkc8L13jkcz4QLf9zEVXFr8/xsy9wQfE/0wD/ZNhU/R4/w8b08ezgKfNY+TZxDbKOHFaZCq7IHF84U3p06GRuHkcGwPgtvfCtkmcgtiTc2UaY+bG+hakJp5DG+0WewzbeqegQy55lsxSEKgvcReZmG1AZMRAINr4tMSEuGjz3BKHGrG8GmdK71C0FipyG6bdWP/5O0QmJkZLo0RufLaRbHkHbrPhnfgj94h8TM69KzBhek/OtVm65CLHbt+h8VSHbt+B6WprEfU78AT6pSAFBOvbU3o3mp3cu4seycpddgaAMzviKawNT4QKD9VjPmWndPJz4pScTbhaCgQG+Ai2mDg1GtW9eOQYXitYy8cYOUuY9EKMXGzuHnPkCvuUbYp4QMghGTExMnc4ec9UHlxooPZETDtZkQWXgG6nULI0nEdt6sRwDmLJS30ct1LZTlsSearmTJaxZPZIGvr322k2Q1N5stnJOPo82Gh/fpWnQZzZQSsenBp0/blR5eZcCKjEg7eidR/BGCpbG2MeDJdtRgkPNl0hinawQKu15CXJl/n5i4IymZ/fJ+/yhIjqfx85MtbglUn2O2SVoIXHdBgfl73T3DVNnNCALnlZHy7GztahhDHAJa/+B96TeWrQGNE+ZyNxsG+9e2CI84H2YckPfX7K2e25xc/nJXDONGkSKKC9LUZV5kHMxSYAcYuOUhSEDXh+S9Xzy/XaxRpeBiSHFOsVyYzjYt2+ObApQ0GEg/zU8o/D8xtJIuB5qUF9XcZAdju4rvKEcdmk3oD7uZpXyXPq9tzirPKEodkkS+7MU7Pej4HHiRgJIGCOqRZfH+RgGDcv8CyR6ueRcnbV/MOAHICd4hoiT/Zkydvfp5xa7RoT87iv2pX0wC2z6lA2ZcTzVa2NANeWV2uuw9zLOi1uw+/bgnL5I+YQmyW9eHBqi3pfRPTnm3XoTlhxt1Ps5j/A+rfs/gbW5mS9T7knZyuaBGWC8O7Cm0Se7sfd5leSELj/m3UO4K7WrVsSCOdhLPmu/jnNiGrW+rLywJqp8SlztJp36+FpG8H6T+B91H2SNPrn3Scxoz+5W4JLlwTOWWRFszr6n714PI5FhcV4n5iD7lWTxMzZ6IZZcvuPTRmUuh0Ejbq1x4ycpOzGyox8w3Trtxx5QGR3tI8J+MOIrhtao0SQjV+Jx9prOZUx4zEYSXOPMWPZzh79IPdSQXx9ZG1uE7mUeliO4AHRv1YodjUxf2YYwTQ2bi1gnQKWAo4uaQaXd3RHRzPEsqO9G5a0jFwCNoayqiKXsQ2bpRu5dm9YS8PIvSh36Ybkmw5N4ixISQemeFCqxSGsnzZ9Lh1acdv06sQTkna7BVHInE1N6mluaItWKVs6tXB/2ay++L6ceU6IOneN2xgVpYBvOJUHi0gNZer8HarG3xtw5q5EcqYT5/32AFZ5pMn9A5vyNNLk1mQWE+XALeKaOvE5ntrFJqNe4HdwbkTinkEWd+VDTzkrr82ZpxYMpXs+JgS/UxDoMBc2M9Z0/UDI8a7UmW+gORSdz3wDeVfqfJjMY33xdrEqv7Rcu/nQEstGNWTuCfFCYfLUApu8ULhQYA6tTCnHoRxS2lHCaS+JXSqHNqVD484ST82NxVEv7Ia+6FV8aOvlLdEZi9jb+88qFFulwyMJunx+6fRnlzXZKh0+XLLNd9ga8c9uvpPC+odff/j9yx//8tPXn3/+7ffv3/72+eP//+nb989//f7t77/8eP9Pv3354dfP69/+CQ==);lineShape=1;strokeColor=default;strokeWidth=0;" vertex="1" parent="eGeyz6QdcLcYbzC0eajq-1">
          <mxGeometry x="371.40285692702105" y="318.3188594705937" width="219.69222654630812" height="219.43347017393148" as="geometry" />
        </mxCell>
        <mxCell id="JKelvmIhbmDu9MPVq55F-12" value="" style="shape=stencil(rZ3Z0hw3doSfhrcd2Jfrsf0eihA1ZIwsKiiNl7c3YLm7+s/s/iBF+E6kkOxCFXBwljyJT/lvv3354dfPn1L47ffv3/7x+T+//vj7l0/5Xz6l9PWXL5+/f/19/den/K+f8t9++vb989+/f/vnLz/+8edff9gj93/9+7f/2P/Cf/2BG/0W5kal8N9//E3tt1b+92/+7Q/Az19/+QiIVQFpICAFBYTIgP4R0G59IiBPBZSKgNoUEBMCevwIqLfBb2kmBRR6S+MWqgLwtY5bsl8IDQF5fASU26C3NG61KqBlBPSigBIQMO0XIj3SvEX5cPk26C3N+wM8ARo90ry1qoDMgClLI90mrNYZbnEqoMGHW4AyFJBhAy1AF0C8TfqFeAsGqDSHaDsu3pfjO0ATQLgNWEsLMA1QYMfNdEsGCPQL6T7FO6BMXN4LMAyAk863+PG1lnEb9OHyfYpPgMKAHhRAtnUBZMeVjvthFrXeCxBpaawtnz8C2m3wL7SiAJz0w2w9AfBLL8Mov1Dvu/wdQGxrYWO8AGJmSrmbhXeA2hVQ+ZF6VkDkRxqy+JappNW6XmJSQCGr0dQYL0CgpdF0i5Z0n9U7QEkKyPxIcmQtQKDF125NvkNkI/BwRZ4AiR9JzocS8Mia3VZruFVaS92+wzpiaA4Ph+0OyPPWaQ5dl/cCZJ5DTQrA79DVCOTB32F5ZFUBiTZQv42Pbyk//uYdYHYFkAs3l+k1QKRJj1sUwFpdtEWHesYLkOlQNJ8vV/YEhvoaC4CewFBDlisfikMdrFzQlV4AsXwLcPgOIyog0gYaerDnfF9d7wC6NPLdIXoNmPcD6gmAR9a8r5wH4OAkmmecD07i8l3kLcW7b/AW0BSAS2PeH+AJgEtj3o37AxAwQpnm3efAS2Oqc7IAuDQW4OOXTpOPrHmrQQG4RaeayjRO36EWBVReGhLtLgC6Dgvw0Qikfo8o3gFaUMBhPzSZ9DomD7+QFfB/hufP/0Lkt9Q+rtZU2Qj4pOstH5aGvNaDkzjVm1mAwq+1ZgVQTmAv74+WL2U+duc9sfIESIcNJG8pYTJnG4GqgMxfWrzKdDZkWQH1YIyrAihdtM29fOlwTyC9PVCmAhIfu/Pja42TvcpxD8KeAIdTtBsg0HcYurzjOur5F0pTwGHS+aPli5030NAzLj4c0z/pwi1AJOu9HuDjWorLhaO31DV+WAA0leYZx0eg9tZZl184RLvLVicFYLRrAUc8GLKHcX8CYLTbbLUWzjo0Nfcxc36pqSewAIU+3ApeiwLQu28ax8XEB0q9P/ETAJdGtUknXhqWpoiRvcqqucoFwC1a7uHFAxDuO+QdQLz7BcCDvaiDtQB4AhX1Wyc7leWeQbvG46Gb77HzNR5NRtYJDD4Qsx5XA4sbM2lwMtjFTWroD85e0qRMPyVmY5Hx+DxR03tc/Vnjxb1tfLBFXQ+NveGg77PySRs0pXSIoMPdvbnGH7L7QccHKkVNXZ+Fq2nm4hX0jsbU71vQRIyhZo591F2G+rjeMpfehmas891Mvh7fLfrH9LMXD9kD3uVMSW1x+dMShgnztmu8xiF43K/xkv1LaN9G1fWfMMxZ45uEm7i/1vis43E9P8qcjwPg7gu/Hl/uDtk1nuzbGl90PJ2Ro2iVJ6JvM7Kut4j2c2T9vhETCmu8+h1cU03qLwYMxUfUEhInadZ4cfPDvUz8enzwfx/ff9CiWUB726eW5gPatzVe7DPnmLrZt4BllDU+6fvB8V3Pl4CO6xof9N+vsF96U/sfML20xkedL77/qunZgCmHXjUl/Thg342Puh4o9u7Fn4eKId3sQ8Ci7hpv72fQ82eNENmD7tnCaCy1rPEx6Xh6nqRsArYna3xR+5Po+ZMykOI9Hn09PirLJOJ53Y2rELGctsYLEydihbwHS5Twegua4Ip4vrepuaGI62GNl4RBuk/o3XjzB+i8bkNTHlxoaFYhSnjeNSM2pXti6fV4K+xxUXmN1wz9/UB+N172b0Z/tTWrTOL6X+O16oHruZk/xoymZlSDjHyMNV5ZK2hPWlH7UNAfXuPlPH0wRl6Pzzrfgv7AGq8cAExOrfFyXlS0by0Zy42/V9L0WsXzq0VN7a4PTvsl6vnYsMq2xgeNf8ketqD2hPk8a7zsX66C16m5vo7vc40Xe96xaF6HJh8Hll6r5bEH+tvVqvgD12ftGo8P5Auu8bJfJtrb2jQFx7S22tQ+zPuGezde5hsDMiRr1QnHgBTjahFh5JCkFg0ZIvsQtaiNOCRCNy/VkrkUxddsXgpTlzbNNCkA13WyElBGR24BNLDNaHlrskgyY+qoRgtVCxZdF8ArCZWWhjtb5R7OvQMk+dIVV2uZ5u7WO3f1HUA/XEMa3CaBWkWHIrIF0P3Q8Egr/R5hPAAdczYLIDyh2DEI2pxOK/ZRgWYB9BcGpuVKtTlM9LsWQP3qiQdbKVZvYctXilWaA26gYqWBHcvRl85asNzBEFi+kpRNtaMJmkNSYtGhvF6i0U0S/0LQ83Y5nDiHYBSBjMs7z3vA9AAUDCmyV/wLHigX+fABqGiX8lCC164qwJfODyfnCUBuYTbi6fJ7iPCY7ZxeACqJbqafzGHway1qBBJv0QXQ7zDRtuZssUtAQ5aTJvcyuw4L4Kw2Sp9v0pswJBP6GvsBhAbHBYAF0ILBg+b/EpCM4LUZkvAL67uKbV3fnggtyWsq3P+UnADMfK0dVBg9l87pHeXIIw3Mc1w7+AlA3kyy5Z0nZvaTLe9l2shVX3ZOW1AenTivAcnaNyIm35MFn/vEoC9tjTq7C4C+Q9Ry5KExYZ+ZVQHESY5m7tdRTxWEaNTW5X2Q9d6uiADYX1qAYH03tIGiMegXgPzW5eFJVno7pgxIH99S5bpGNPZI5cJStDaaFSCQd79cc/nSO2aBpRGz7rjKuar46M17AAou7+jJm4pn3ALIKbriX+r32IGkvNaOezraBloAchJj0HO6Dsw4L4AwWupkGpxmSFvAI27qbmjMj7SK/s554XhZeC3hgdjVa2iZS3ZaEWkFv7E1DbWKvCujjq3xRBI0IljjFF1VLlt7cA7ejNf32ZExW2y+A32kosT/xhx4y/D2gO8zq3e+xqMbqYdgZ0uX1Zlf48luJc3498MhqxX3nvF7JV0/azyd+tY72wtSxqIyJDpTioxxtcY3MkAa+3emXEU9v3tD5qRltDv7jkGDhDWevNlgGeqBxExLUnU+7IO6H33i9wpqPzenAd6neVyDOwotIB8RU+ZW0RwRKQOPGO4xPmHGLOj+Hby/gtqfkdFR8efhgCtoPm4ULPEFjfVHQQqSNfwP7iwJuh9HxRRNUIbW4I7roPZhc9RwfUpmenDnZFR7O7iLPWqFcnMEydXVvoExT/Yt6ngK/KKqg2yOJv77Yn8mu+pJ+0+2YAPFlVohmxEpRZZE3OoL+O/r86fDeSqh+mQmfNb3PzNSqrMGiJtjTXlZe5+Z07L2PAVTb5Y42KR1qptoW+/kknW999U8xlemGGjOd1Z8P00DjFmR4tTU39i9D+hvSyFqjc9EKVL/cDYWcVH/aveTEEVdlQ8mh2zWyLdbaDgAkzLX5D6kGKynoCOpJRrJaXbOLyS1ubsbnaJOaxPY3VUczIvXNzmdHIsGwrulDLZNLJoSv3rF32UwdCMP1ADYSZWqAMxg+FaYHP137X/Z3YYE8MU97+bjbTasKYAq0SnY0mB39CJAPgFoeaeoec8NoFRsMg7ExAh0HQlq4rnSsGNQmzTl23YXhU2aDrUdpdscKAuw0wb+SBSGWpvdCfBgzvzZR7KWzRNgqqu2ARTqTvUdN4CrJc2+A7Wd5qjRxJxIR8nJjgderTm92NN03uasCZzDjtuCFvZItKezkZwvOYfXgKo5wKsL+jWgaavgJXrxDjDM3BMRM1vjzTb39EhD8yZbfISKssMcW+61y9MMGR+Kxegok7vzisVSV8vxa0BUatPBddiMAHMd0HtO5m4f2CW+vLkFsBQ7gRoujVI0I7g9RPLQq6aYJofAu+Q0FBCJBtE0qbCcaPxwRqmZFQ1Z6dqIOSvTUaxZfVb0NcpQKv8OTOgXjBs+C7IaislDbP04OHYXQOrE80AxC1oiOgR7m2Jm0SHSFaNtoIyUmmoloh3fUrxnRLytRUiTTnZOJ45Aky0+7vKrWblQC4DsQ5Mq3I2+NOliUSs31lUP07lZfdNG7Rcob7MlWWXSAR2s6pF6QM+4NouBAp7TW+m2KYDo+rUp+3CwR7blfbMCqOFsCwhb+ow6AqpV07cwLFOuJdpdADIzu0BqGUNiNdRppO6BKahqHJzRMQe7AELl2I3F1IcSLIvZsSq7AOKGbrFn6myI6lWOhsu7eaKUmawLIL2vo3HmKmlqbLcjc3eGdCuMQ7tFVu9+J9vpO2RbfBWt9wJo+pwV75qRzReA6inNLN8uSNCHswzlKJhRblVd6V0ioQ9XlQq+AORKt6ptC4eize6bkg+XUJhhAbTswYdi67Y0EtYVm7VqDJYfbRaAD24ebCZQtNuryQgMqz0xN6MNdX9GOPUnSv/mobq4AOJVjoDc8WaU/D65hTZoy17nAk4Peop2lnbur0rCFKH0aI80+JGsbb4/SJjvABLid+b79qRZ6QXAzvOkZqZznnwBhMjSWeC0Z3skFjjdzc9CdajI4e9WK+osz9KtWNQrejObayFzKKcGcV3eTN/d7AzjdxBfppvuU2dNlAUQu7QZKgRoRplJPOmm3szuG2eAFCk7d2B164NbO4RYKt3uneiRv7QlpPpBCsBalXvgSQ/TTuLKcjdzv9vBWX1C+L5tYtDUTft2N4TTHKamvBpX67upWC4AKg5MrQM1lrBa5420+LeOp+iwJEJjV3oEoyA2pJRch+wTAGVejDa6PSjS8bG89/bR+BdUWItb5xZADsXGzO5hRch2uGHEwoHdTU6PZFS73U5OSyOp5VsAlJ8xSv4OEFifR0LLllnwyAKOxgoHw9oKFoASg1uSKCqAFOSHaeTtyI7mUDTf2g4qScUMWcQy5wI0A5DvvYMwYznjay1aXmusvLPjwqYAOkUvmtcdULkjcQFkeVcuQo6q4fGBCj4s7125/XzH50Y2J2LBsGskDnT2BVDBvIH0kWEd7jvjRJNuSr+onR/JUvE7zUZryfqjakPXYQG0rYBlGIaFlhtAk+5qBGrDKGtYl/GWHuBJq7JF5y36EvDXHon1ezfAfoGirBevlbn2Lz5cx4zuXhrRAHybWXEAf2nxvfdbOlzhNgxw0Dy0DYRnnP9CY8tnosUbwB/OL4lD3TrTUT5v0eoAfiS9FOu4RdUYH+cgWqqVlQNe7Ljjd1Bzf/CMu/V49dPde5JEOK9WyWBdJYz/N4BvIMr+DOswqpzMcRHQLUvDh6JUmhYAb8ZrZjWYRzaa7WmuA+2D3X6BCtpXav/Z/WFfo5tHhubestK7qsKPpG5oYDXZqtWyBcClUS0GOuh1FosUOQU8ip5AC4Cx6CvfG4MmuyTuqtu8CzjUlU7YHj6shtJYhWLHQNLjlpGvsaOsqAC8sTPrJQ+N1XF2eUIiRb6X6OpyeQJgHJeUcrvF2Vj7VfJLrWInzjBxsgXAxRdNPayisswwJnNjJY1dzygKoDT2CHoCtcPBbhTDrQlIa8kaohrzvXdCyjJYWE6Y1iI60KvsdpfM7uGkTKLRhnehh3OVuqcn1ti73TDSmEy6k5sf98Mu9FBi8FX6lL7D1Qf4BCAa/U4BC+CgXmpq4FvPlADNmhUT+ks7UR4VgJNumtzsiSddrb80I1moGw1mi9zyL2SroeCkq2Z0FwAnXVQIoDO1rRdbfJW/dLEqTWVhWFOL6iwk1u262M6Wr2f1yDo3xvSkmfW9fmkOJv7bmdXSTY+qdy7gRXtLnP3ZhVSrvKJ6QLRH4nbBbt06na/H7MEeiUnu3c6HwXWgNnV5j4AE8WZEzH3qEZtiatP1Fm6nKv7Qhol91BM5YhibgpWY2zC+RjxJ+zbja6D2sWUddoGBOSfKakl4xjWz3uMoNyzn9PZkmWijHCzmtzbTBRusz7YVhI3wRNFus1T84Cs+mxnjwY7uAsj5cMVdrwHZlgYXv5pJ0SwA6lYn5Urvrm360klduB1h04cz7ZrRmCwU1dwPrlruyDMogKx3i1o4GpzcvMLtJwAd7LvEYqxHFC2dRogdzGS2C3LGQSHYTeVAJkIdtvgGk0mHpk8HX0JV7dKbTeqlRzLV9MHJnGoprwVAUm+zrim+2KsahWRyPa5afmnTt2EtLYB2HB2EiK3itynoNOlijb4Rb+NZgGwAsnw126SZk1gtczITU9DtQonJAUf1VmK+E7Ra2X9mTDJXu0NsZtaojpry2hIC3FaiPekZc/fVRFtmQe9+AcRqLAAd7MUupN3NNyx1LOHAAlA5oQxrXGHqcxn2CxXd0GI1lOuSw3cAOdgna5+UZo2NDUPL8pDffwLgHKo1Kzc098UIgJPLOsWunDoIFhTTUT0oFhRjtZybAiV9emo7jHrG7cZGMJVbGlMW30CSSjGZnn2BLHzpPLUeNwca4zztqkgWRsvDmgIHph5zN2mWgZSq7Or/TL9YALWtE4+sbPeJ/IneYwOQd599eU90pXNWwaTd0k1iyknLCYfm/ZzMzEz+cFFTwHOid5+DtbBOLGinqSXCDSAVofmiQ5vW0stufwrxX+oJIMAvBg7cvpZM5vSIqH91FsXMALOwLrnyZ8BBncK/NQkuJXN1uQMieRc4r1fX+DoINcT5QmyCiJKuynvY1dG7j/km3tit25IrELG9EP0gNzG2F5aJWldifTEHCi6jy4pwL2S0Uup11fs7QDIAHVoxvRA5wO/g+maD9ZHsSt55kFN2Y8mqCDG8kHii0G9ab33HzsZhbemdK+AmQtIxH2XMn8m3Ilsvw2wHyS//91kCV929ypGx+QB8q4rvm4opdWNRzMq3hdgCKrgeiul2FHweu+R1cotOtkwDJ2XtUvB9TTgdOS8k+1A43t4PU8iT+dqcZbCyz4ws0W4BPSvlR3v+gLGwx/+B5dD0MBvz8O+rxOU8SJ4OywASQcZ7vfk2hKA2/aKdvhkvTtRoB8lZlYRtKP5mujijYukmWGq7YnIk6HobfAu6dQjtEgY+v5aeThKyKnlwkqjV8ScJXG9dpv0SVGFkcH+GFyQj2rdgLe0BfYhgEtAcq1iDVp9Y6gh2iSD37wbrM+Wqs0s6d/S/TXSmM0vcZKE6V2qsW+y6tvmdfTOJb8qHRhW363zDkl0zssaT6kLUJFxnsp2JWm3uA0q4S02nJ77rRe1t5ysMXknKk3+YrT02YA7RypWNqy1F7UNj9m8xZiGfR0XXczvIoRiJr7Osk9E7ubRp6hKNxbWasRCZHtSMj1eQImj9DpesyDv/X95nwvUwjIYcuSHJ2h5Z8t2C+avu+ma8ts2wfY7mEFSumW7JXGmm6BwHmyp4ZZcmmnhNZQm4aCpclZ2UaFo0lVlsMWvJp7LbEYtdZ8OiKdEKlFuMjA4Cu4axcgk0Wn2l8q2K0eSpd+WL3pLd4F046+6ivOUgSG95/cItWNGE8krjSRt/t3D3tnvIhYt7fstFKZiqSlFzJCWjdECyJHpJGHTsKFSuFo+sHms3vWz9TEpx++XiAalKydqM8+TA2MTd9+WS5IlUXRqZc1upqRHI3CCVrDsvNxZ47rpFc2VxZLtQbQEwHTDVf8+sYJUs/XzdFfnaQQpaScts+VwnOCfM9eakMdq+K5J8wqRO23pI2qLZlnfm1ZpteV93Rb4GWF4sDVx867uKI5M417sAkonavg0XKPUCWm4+zV1JOIlzn9mSq5e7+Bow1BtOFQsN2XojEhvjLSzcFYDXVtsVAykj0bRYxihxBrFE3aKJZSj21ZRNAeQjlmR34rK53yyFpgCcg90skgLfc2280Z2ZYCViuRsiTnS8S1WKzALghcxVt2jk26VKs7vrB9bfF6AZgJKJpdsv9BNrR+fQ+frwoRyz5QXi8h52Ff2BtTO1nS+y0uQCiF3a10sQKc2uYYz1JF0s8cP2ximItovNImdV9o2f9guUxqsm8bNDEJp00kA0spO4AKLSGBOeQNX6MCP3klbTjFsActZr1mRb5EvWa1FTGdkTqFb1jRFduOpWI6CZ2VTWpAAkmto5HbnZrpoe52RCZLNKN1olJxTzhQTVdDQGv6GuEx5Y8a1Wwh38yYalDFnDe1rzIpsXixBZxOCSFnqkcPAYuTrlr/Fk45slZBrLFVtJrfGlqlbiq6xIa9FnZUFaz96wSmnSkt0hY5g1MGSp/N2RIjdzczOH9R/yvdy7p+bj+MxKy0XTYUdF4KTjsZGj6nwzBhat6TmQWejWlNP5nGkmnJ7QOW1dmWp8LDWjPrMg5nVn7zUeO2mGUjYSVribNaFEDIra1BIHZ5y945BVKXZLozgG+D53b7gcYLjfu926GbmpOeh6iGhvu91aGbECt8ZXfZ/IEDJphsANzUkz7OHUCyzrMyBldjeRFxlP9q3bjRKBO4ezRimH3v6sXeuB10PR+kDgCk3RZGU4NcXLfgmY8erWVsAVl6vb/BpP59duNtf5orhC09ghHHUJ9P2geHTXdFrAILRbb27g/WIxaGB9i67JBuYdb33vvzR+qtD04Xmm+pP8flzDNrD6TNCSZmDZrfhifRID0sppBymmpE3zLDPvSq5sT3afte4XVKuynprAgltZ02HcSzhMeDyyNE9RCkNkiTEr0bNyyTCJDT5PhxUCI7//aoE/y7FaST+eBM/E304sSdjcHztJtkl+lNez3auTMDU/usZ3iYWUTGgvsRjz0PjrIJg11D/JPN+h/lJmBsPUjHZmieGpFKSC58uwWyUKntfTKG98qfNuRpZ6Ksb7uxdZ5PKwhXtGPR9ZiWta/p5reNMuaeV4fJo9b/w+k/rDfGXfJiBbvgLW53XH+JUPoQrKdIoWFtinCT50tOfTzgvuRtz9xELpRf95Wrw/+XsV61DD/Xs1E1/jyT7PYvERU6o3Y1+bwVDOaLcEeBKUpmyssRjRJ57VYk6mxV5dEE8AyqpNuzZ1J6PpMzQLmxOvU6MHbJoRfYf2IsdPFalpl15HTgXNrtyUWHhpdPMlCi8N09deAMpGTNPijRWP+2nSurFiPmLaLXcX8+kdQB1AzqDuu2enAiilsvu4rAyHF99bTBP5yqBpGn+xY+H76od+AAbSx6bd2bsAdIfEnBrnRr6oeFoiPjLl52qgfgLgpKfSxxLf+jitPe0QrFydkw8ARxPT7jPc7jutpanaEDtfyG9J8gHbYea3JJpmibW0pnl426XlScuRm/iepKsL9wEoGIRPu948sdLV1dP9BKC28Kun+wGo7IcZk2o7hrTjppr71LCO/dSh/YTA1t+XCGrafjGLjum6aeWvxDpRL14sF/zm1ARoYs78BiQFUMj2YjWxFMOL9cpd3tPEsXLArPXVZv4EONgNaTzPnEeZlvfKTPpxQ5P5IrANsF9A197YWjmhItgGRAXgSW13JuaM5Nw5NRuX8/HQmgo47AfNFxRMGO9zNCuAMvb7pK4KoCatSxvlAaiYg5zWtp2ZVb39GaPOUpb26q1/AqBdGprmycx02k6cADp/h6HOdGZtnznUn8mdg5phX3pw7G3KnQeS9LRrJzLrKkzjeOaJDak7IGgKwODS8nMHKvm0S4NK4POha8Zhs9vpS3dNsRTO8W4RgqYAatPfod/HpVH4GngPLkvi79C0DL0A1NczvT2EE5nTer02TZT2Q9P9UDL7ZM1Sh4X9eyNfFb4Yb1b1jQsT7md90U+CroNJchfm20zTQiwNC06z2FpqSFHbkg3WRIPng1FcSudkS7Ev3Xk/WJF5M1c56+itRugvZaWtFKb/zmxGYJ4Ss8MA6CQaM6DyNSwzWSo6cFotaW2ucl/PjNZvGDm4NJXwyuWnGTU7UxMvb7t2oiaUK53WQ14T57BMdKGyqMAMdkNPxh03ps3hcOfJVOtdj1UZZd0VtEtjalmvllNdSYxxLVxYsl69ytoyw2QyFwBvSrJ+kgU4PJLs6UMr6jAHq3K/9MvL/ahc9PJiPHxL5mBV1qQcRtionSv03TYQiz7tEqvdTXaosUpB4dB0/OJSOb6kfQNs0rg0up7TlTOuw7zKMyD5pHkOulpZDGNYP8n+DnwLnRoyVh9dADUCfLC/BvB3OAHWf/z6w+9f/vjDT19//vm3379/+8fn5///07fvn//+/ds/f/nx8Ve/ffnh18/rT/8D);lineShape=1;strokeColor=default;strokeWidth=0;" vertex="1" parent="eGeyz6QdcLcYbzC0eajq-1">
          <mxGeometry x="114.91152693154504" y="52.16675064813205" width="320.6229355763412" height="452.3726661819395" as="geometry" />
        </mxCell>
      </root>
    </mxGraphModel>
  </diagram>
  <diagram id="ZNT4QdeXe49np00EDqN-" name="Page-4">
    <mxGraphModel dx="1049" dy="778" grid="1" gridSize="10" guides="1" tooltips="1" connect="1" arrows="1" fold="1" page="1" pageScale="1" pageWidth="827" pageHeight="1169" math="0" shadow="0">
      <root>
        <mxCell id="0" />
        <mxCell id="1" parent="0" />
      </root>
    </mxGraphModel>
  </diagram>
</mxfile>
